<svg xmlns="http://www.w3.org/2000/svg" width="264" height="84" viewBox="0 0 264 84">
  <g id="Plastic_Surgery" data-name="Plastic Surgery" transform="translate(-0.035 0.037)">
    <g id="Rectangle_27" data-name="Rectangle 27" transform="translate(0.035 -0.037)" fill="#fff" stroke="#efefef" stroke-width="1">
      <rect width="264" height="84" rx="15" stroke="none"/>
      <rect x="0.5" y="0.5" width="263" height="83" rx="14.5" fill="none"/>
    </g>
    <text id="Bariatric_Surgery" data-name="Bariatric Surgery" transform="translate(79.035 49.963)" fill="#131b39" font-size="21" font-family="Roboto-Black, Roboto" font-weight="800"><tspan x="0" y="0">Bariatric Surgery</tspan></text>
    <g id="Group_38388" data-name="Group 38388" transform="translate(24.563 26.823)">
      <g id="Group_38388-2" data-name="Group 38388" transform="translate(0.113 0.14)">
        <path id="Path_11581" data-name="Path 11581" d="M419.656,366.887c-.115-3.094-.6-5.868-2.413-8.269-.676-.9-.458-1.339.656-1.57a6.913,6.913,0,0,1,8.215,6.011c1.122,7.555-4.56,16.676-11.876,19.044a13.585,13.585,0,0,1-4.561.645c-.624-.016-1.282-.066-1.374-.8s.557-.934,1.129-1.144c5.512-2.022,8.988-5.807,10.032-11.665A21.739,21.739,0,0,0,419.656,366.887Zm-7.163,13.3a29.353,29.353,0,0,1-3.455,1.579l.147.39a14.614,14.614,0,0,0,6.406-1.065,16.307,16.307,0,0,0,4.252-3.191s1.542-1.708,1.751-2a19.546,19.546,0,0,0,3.665-7.968c.31-1.782.793-3-.072-5.44s-1.406-3.543-3.388-4.317c-1.427-.887-2.562-.537-3.617-.533-.631,0-.41.481-.211.775,1.832,2.705,2.254,5.722,2.245,8.921a13.947,13.947,0,0,1-2.6,8.242C416.292,377.473,413.069,379.725,412.492,380.19Z" transform="translate(-390.984 -352.248)" fill="#007e95" stroke="#007e95" stroke-width="0.5"/>
        <path id="Path_11582" data-name="Path 11582" d="M384.874,349.594c-.135.009-.27.016-.4.028-.846.077-2.013.329-2.513,0a4.155,4.155,0,0,1-1.745-3.157,18.8,18.8,0,0,0-.256-2.155c.724-.258.823.135.87.741a12.95,12.95,0,0,0,.383,2.549c.406,1.426,1.261,1.848,2.7,1.483,2.632-.667,3.3-.328,4.334,2.2,3.13,7.653-1.159,17.554-8.818,20.326a8.569,8.569,0,0,1-6,.05c-2.612-.947-3.779-2.963-4.129-5.58-.07-.523.09-1.217-.554-1.4a1.738,1.738,0,0,0-1.6.594,4.243,4.243,0,0,0-1.128,3.244c-.007.425.45,1.168-.507,1.255-.727-2.176.116-5.415,2.968-6.01,1.079-.225,1.287.109,1.361.977a9.077,9.077,0,0,0,1,3.92c1.517,2.582,5.322,3.635,8.478,2.208a14.567,14.567,0,0,0,9.129-13.381,12.945,12.945,0,0,0-.941-6.134c-.407-.894-.728-2.035-2.119-1.894Z" transform="translate(-363.61 -344.187)" fill="#007e95" stroke="#007e95" stroke-width="0.5"/>
        <path id="Path_11583" data-name="Path 11583" d="M374.613,364.521a5.9,5.9,0,0,1-2.448-.622c-.283-.337-.7-.29-1.07-.375a3.779,3.779,0,0,0-3.4-.535c-.429.081-.8.3-1.238-.113-1.814-1.691-3.827-1.194-4.687,1.146a15.408,15.408,0,0,0-.538,2.088c-.065.3-.163.507-.5.52-.206-2.885,1.007-4.958,3.142-5.477a2.28,2.28,0,0,1,1.844.155,5.282,5.282,0,0,0,3.7.844,5.773,5.773,0,0,1,3.2,1.01c1.425.8,2.353.751,3.395-.416a11.871,11.871,0,0,0,2.967-8.378,2.14,2.14,0,0,0-.916-1.6c-2.45-2.082-2.982-4.864-2.911-7.868.01-.429-.046-1.018.725-.7.172,1.957-.163,4,.989,5.788a10.8,10.8,0,0,0,.754,1.32c2.417,2.4,2.194,3.07,1.994,5.253-.049.538-.124,1.074-.187,1.611l-.257.548a17.268,17.268,0,0,1-3.27,5.444Z" transform="translate(-360.715 -344.111)" fill="#007e95" stroke="#007e95" stroke-width="0.5"/>
      </g>
    </g>
  </g>
</svg>
