<svg xmlns="http://www.w3.org/2000/svg" width="264" height="83" viewBox="0 0 264 83">
  <g id="Dental" transform="translate(-0.468 -0.435)">
    <g id="Rectangle_25" data-name="Rectangle 25" transform="translate(0.468 0.435)" fill="#fff" stroke="#efefef" stroke-width="1">
      <rect width="264" height="83" rx="15" stroke="none"/>
      <rect x="0.5" y="0.5" width="263" height="82" rx="14.5" fill="none"/>
    </g>
    <text id="Dental-2" data-name="Dental" transform="translate(120.468 53.436)" fill="#131b39" font-size="21" font-family="Roboto-Black, Roboto" font-weight="800"><tspan x="0" y="0">Dental</tspan></text>
    <g id="dentest" transform="translate(25.15 25.15)">
      <g id="XMLID_1671_" transform="translate(0 0)">
        <g id="XMLID_1821_">
          <g id="XMLID_81_">
            <path id="XMLID_83_" d="M427.83,29.814a.744.744,0,0,0,.744-.744V27.745a.744.744,0,1,0-1.488,0V29.07A.744.744,0,0,0,427.83,29.814Z" transform="translate(-395.311 -27.001)" fill="#007e95"/>
            <path id="XMLID_103_" d="M427.83,96.007a.744.744,0,0,0,.744-.744V93.938a.744.744,0,1,0-1.488,0v1.325A.744.744,0,0,0,427.83,96.007Z" transform="translate(-395.311 -88.269)" fill="#007e95"/>
            <path id="XMLID_104_" d="M452.023,70.489h1.325a.744.744,0,1,0,0-1.488h-1.325a.744.744,0,0,0,0,1.488Z" transform="translate(-417.705 -65.876)" fill="#007e95"/>
            <path id="XMLID_105_" d="M385.83,70.489h1.325a.744.744,0,1,0,0-1.488H385.83a.744.744,0,0,0,0,1.488Z" transform="translate(-356.436 -65.876)" fill="#007e95"/>
            <path id="XMLID_111_" d="M37.971,168.012l-5.362-8.233a9.153,9.153,0,0,0-13.565-2.006,9.145,9.145,0,0,0-2.323-1.425.744.744,0,0,0-.581,1.37,7.656,7.656,0,0,1,1.945,1.194,1.486,1.486,0,0,0,1.919,0,7.663,7.663,0,0,1,11.357,1.68l4.46,6.848a5.066,5.066,0,0,1-1.153-.53,25.769,25.769,0,0,0-13.633-3.9h-3.98a25.769,25.769,0,0,0-13.633,3.9,5.067,5.067,0,0,1-1.153.53l4.46-6.848a7.638,7.638,0,0,1,3.43-2.873.744.744,0,1,0-.581-1.37,9.12,9.12,0,0,0-4.1,3.431L.121,168.012a.743.743,0,0,0,.244,1.045A17.928,17.928,0,0,1,3.555,172c3.231,3.424,7.656,8.112,15.473,8.122h.03c7.817-.01,12.242-4.7,15.473-8.122a18.031,18.031,0,0,1,3.223-2.963A.744.744,0,0,0,37.971,168.012Zm-12.825-3.163a24.261,24.261,0,0,1,3.869,1v.516a.723.723,0,0,1-.722.722H25.869a.723.723,0,0,1-.722-.722Zm-1.488-.208v2.111a.723.723,0,0,1-.722.722H20.512a.723.723,0,0,1-.722-.722V164.5h1.246a24.332,24.332,0,0,1,2.623.142ZM18.3,164.5v2.254a.723.723,0,0,1-.722.722H15.156a.723.723,0,0,1-.722-.722V164.64a24.331,24.331,0,0,1,2.623-.142Zm-6.079,2.586H9.8a.723.723,0,0,1-.722-.722v-.516a24.259,24.259,0,0,1,3.869-1v1.514a.723.723,0,0,1-.722.722Zm-4.633-.667A2.213,2.213,0,0,0,9.8,168.572h2.424a2.2,2.2,0,0,0,1.251-.389,2.206,2.206,0,0,0,1.682.779H17.58a2.2,2.2,0,0,0,1.466-.558,2.2,2.2,0,0,0,1.466.558h2.424a2.206,2.206,0,0,0,1.682-.779,2.2,2.2,0,0,0,1.251.389h2.424a2.212,2.212,0,0,0,2.209-2.155,24.334,24.334,0,0,1,3.3,1.7,14.38,14.38,0,0,0-2.12.722,22.741,22.741,0,0,1-9.03,1.858h-7.2a22.741,22.741,0,0,1-9.03-1.858,14.4,14.4,0,0,0-2.12-.722,24.34,24.34,0,0,1,3.3-1.7Zm25.859,4.565c-3.217,3.409-7.221,7.651-14.406,7.655s-11.189-4.246-14.406-7.655c-.546-.578-1.06-1.122-1.557-1.609a12.835,12.835,0,0,1,2.747.833,24.221,24.221,0,0,0,9.618,1.979h7.2a24.221,24.221,0,0,0,9.618-1.979A12.83,12.83,0,0,1,35,169.376C34.508,169.862,33.994,170.406,33.449,170.983Z" transform="translate(0 -146.052)" fill="#007e95"/>
          </g>
        </g>
        <g id="XMLID_1672_" transform="translate(12.407 9.569)">
          <g id="XMLID_1673_">
            <path id="XMLID_331_" d="M167.5,157.114a.744.744,0,1,1,.744-.745h0A.744.744,0,0,1,167.5,157.114Z" transform="translate(-166.759 -155.626)" fill="#007e95"/>
          </g>
        </g>
      </g>
    </g>
  </g>
</svg>
