<svg xmlns="http://www.w3.org/2000/svg" width="264" height="84" viewBox="0 0 264 84">
  <g id="Hair_Transplant" data-name="Hair Transplant" transform="translate(-0.099 0.256)">
    <g id="Rectangle_23" data-name="Rectangle 23" transform="translate(0.099 -0.256)" fill="#fff" stroke="#efefef" stroke-width="1">
      <rect width="264" height="84" rx="15" stroke="none"/>
      <rect x="0.5" y="0.5" width="263" height="83" rx="14.5" fill="none"/>
    </g>
    <text id="Hair_Transplant-2" data-name="Hair Transplant" transform="translate(79.099 52.744)" fill="#131b39" font-size="21" font-family="Roboto-Black, Roboto" font-weight="800"><tspan x="0" y="0">Hair Transplant</tspan></text>
    <g id="New_Text_Document" data-name="New Text Document" transform="translate(25.988 25.15)">
      <g id="Group_31" data-name="Group 31" transform="translate(0)">
        <path id="Path_42" data-name="Path 42" d="M36.05,208.116l-11.437-1.161a1.84,1.84,0,0,0-2.026,1.831V211.2a3.269,3.269,0,0,0,.776,2.115,5.872,5.872,0,0,1,1.394,3.748,5.953,5.953,0,0,1-5.784,5.917,5.833,5.833,0,0,1-2.746-.637.553.553,0,1,0-.5.986,7,7,0,0,0,3.264.758A6.974,6.974,0,0,0,24.206,212.6a2.157,2.157,0,0,1-.473-.989l7.325.744.057,0a.553.553,0,0,0,.055-1.1l-7.476-.759v-1.706a.733.733,0,0,1,.807-.729l11.437,1.161a.731.731,0,0,1,.659.73V211.8l-3.069-.312a.553.553,0,0,0-.112,1.1l3.181.323v12.2a1.348,1.348,0,0,1-1.347,1.347H2.453a1.348,1.348,0,0,1-1.347-1.347v-12.2l12.878-1.307a2.268,2.268,0,0,1-.491,1.083,6.974,6.974,0,0,0,.2,9.074.553.553,0,1,0,.824-.739,5.867,5.867,0,0,1-.169-7.633,3.337,3.337,0,0,0,.768-2.106v-2.5a1.84,1.84,0,0,0-2.026-1.831L1.654,208.116A1.835,1.835,0,0,0,0,209.947v15.166a2.456,2.456,0,0,0,2.453,2.454h32.8a2.456,2.456,0,0,0,2.453-2.454V209.947a1.835,1.835,0,0,0-1.654-1.831Zm-34.284,1.1L13.2,208.056a.733.733,0,0,1,.807.729v1.706l-12.9,1.31v-1.855a.731.731,0,0,1,.659-.73Z" transform="translate(0 -193.492)" fill="#007e95"/>
        <path id="Path_43" data-name="Path 43" d="M162.567,25.95l1.312.743a7.1,7.1,0,0,1,3.588,6.6l-.071,1.183a.553.553,0,1,0,1.1.066l.071-1.183a8.2,8.2,0,0,0-4.106-7.6,6.5,6.5,0,0,1,5.94,6.446l.172,12.369a1.447,1.447,0,0,0,.544,1.121,3.222,3.222,0,1,1-3.833-.125,1.446,1.446,0,0,0,.618-1.112l.451-7.525a.553.553,0,0,0-1.1-.066l-.451,7.524a.351.351,0,0,1-.144.268,4.33,4.33,0,1,0,5.151.168.35.35,0,0,1-.125-.269l-.172-12.364a7.6,7.6,0,0,0-7.416-7.564l-1.155-.028h-.018a.723.723,0,0,0-.356,1.353Z" transform="translate(-150.233 -24.597)" fill="#007e95"/>
        <path id="Path_44" data-name="Path 44" d="M378.627,104.65a.553.553,0,0,0,.76,0l1.14-1.076a.553.553,0,1,0-.76-.8l-.205.194,0-2.969a.553.553,0,0,0-.553-.554h0a.553.553,0,0,0-.553.553l0,2.973-.208-.2a.553.553,0,0,0-.76.8Z" transform="translate(-349.475 -93.918)" fill="#007e95"/>
        <path id="Path_45" data-name="Path 45" d="M90.135,104.65a.553.553,0,0,0,.76,0l1.14-1.076a.553.553,0,1,0-.76-.8l-.208.2,0-2.973a.553.553,0,0,0-.553-.553h0a.553.553,0,0,0-.553.554l0,2.969-.205-.194a.553.553,0,1,0-.76.8Z" transform="translate(-82.268 -93.918)" fill="#007e95"/>
        <path id="Path_46" data-name="Path 46" d="M110.928,332.677a.553.553,0,0,0-.553-.553h-.788a.553.553,0,1,0,0,1.107h.788A.553.553,0,0,0,110.928,332.677Z" transform="translate(-100.989 -309.435)" fill="#007e95"/>
        <path id="Path_47" data-name="Path 47" d="M120.269,421.187h.788a.553.553,0,1,0,0-1.107h-.788a.553.553,0,1,0,0,1.107Z" transform="translate(-110.883 -390.901)" fill="#007e95"/>
        <path id="Path_48" data-name="Path 48" d="M48.969,384.429a.553.553,0,0,0,0,1.107h.788a.553.553,0,0,0,0-1.107Z" transform="translate(-44.844 -357.881)" fill="#007e95"/>
        <path id="Path_49" data-name="Path 49" d="M378.657,333.231a.553.553,0,1,0,0-1.107h-.788a.553.553,0,1,0,0,1.107Z" transform="translate(-349.477 -309.435)" fill="#007e95"/>
        <path id="Path_50" data-name="Path 50" d="M366.632,420.633a.553.553,0,0,0,.553.553h.788a.553.553,0,0,0,0-1.107h-.788A.553.553,0,0,0,366.632,420.633Z" transform="translate(-339.582 -390.901)" fill="#007e95"/>
        <path id="Path_51" data-name="Path 51" d="M439.274,385.536a.553.553,0,0,0,0-1.107h-.788a.553.553,0,1,0,0,1.107Z" transform="translate(-405.621 -357.881)" fill="#007e95"/>
      </g>
    </g>
  </g>
</svg>
