<svg xmlns="http://www.w3.org/2000/svg" width="264" height="84" viewBox="0 0 264 84">
  <g id="Plastic_Surgery" data-name="Plastic Surgery" transform="translate(-0.035 0.037)">
    <g id="Rectangle_27" data-name="Rectangle 27" transform="translate(0.035 -0.037)" fill="#fff" stroke="#efefef" stroke-width="1">
      <rect width="264" height="84" rx="15" stroke="none"/>
      <rect x="0.5" y="0.5" width="263" height="83" rx="14.5" fill="none"/>
    </g>
    <text id="Medical_Surgery" data-name="Medical Surgery" transform="translate(79.035 49.963)" fill="#131b39" font-size="21" font-family="Roboto-Black, Roboto" font-weight="800"><tspan x="0" y="0">Medical Surgery</tspan></text>
    <g id="senrgy2stat_" data-name="senrgy2stat " transform="translate(32.019 29.121)">
      <circle id="Ellipse_3" data-name="Ellipse 3" cx="0.535" cy="0.535" r="0.535" transform="translate(13.154 10.951)" fill="#007e95"/>
      <path id="Path_37" data-name="Path 37" d="M136.694,8.379A11.725,11.725,0,0,0,133.333.16l0,0a.534.534,0,0,0-.759,0l0,0a11.725,11.725,0,0,0-3.361,8.219v11.55a3.744,3.744,0,1,0,1.16,7.4,3.678,3.678,0,0,0,2.561-1.8,3.743,3.743,0,1,0,3.765-5.593Zm-4.278,15.084a2.788,2.788,0,0,1-2.22,2.808,2.674,2.674,0,1,1-.453-5.31.535.535,0,0,0,.535-.535V14.06a3.737,3.737,0,0,0,2.139,1.088Zm6.416.172a2.676,2.676,0,1,1-5.347-.172V14.651a.535.535,0,0,0-.535-.535,2.677,2.677,0,0,1-2.674-2.674V8.379a10.589,10.589,0,0,1,2.139-6.406V8.234a.535.535,0,0,0,.535.535,2.677,2.677,0,0,1,2.674,2.674v8.983a.535.535,0,0,0,.535.535,2.677,2.677,0,0,1,2.674,2.674Zm-5.347-15.9V1.973a10.589,10.589,0,0,1,2.139,6.406v.448A3.736,3.736,0,0,0,133.486,7.738Z" transform="translate(-119.263 0)" fill="#007e95"/>
      <path id="Path_38" data-name="Path 38" d="M2.139,27.377a2.141,2.141,0,0,0,2.139-2.139V.535A.535.535,0,0,0,3.743,0,3.747,3.747,0,0,0,0,3.743v21.5A2.141,2.141,0,0,0,2.139,27.377Zm1.069-9.411H1.069V15.827H3.208Zm0-3.208H1.069V12.619H3.208ZM2.139,26.308a1.071,1.071,0,0,1-1.069-1.069v-6.2H3.208v6.2A1.071,1.071,0,0,1,2.139,26.308ZM3.208,1.123V11.55H1.069V3.743a2.678,2.678,0,0,1,2.139-2.62Z" transform="translate(0 0)" fill="#007e95"/>
      <path id="Path_39" data-name="Path 39" d="M372.535,4.812a.535.535,0,0,0,0,1.069H373.6v12.94a.535.535,0,0,0,.107.321l1.5,2v5.7a.535.535,0,1,0,1.069,0v-5.7l1.5-2a.535.535,0,0,0,.107-.321V16.629a.535.535,0,0,0-1.069,0v2.014l-1.069,1.426-1.069-1.426V10.694h2.139v1.123a.535.535,0,0,0,1.069,0V5.882h1.069a.535.535,0,1,0,0-1.069h-2.674V1.069h1.069a.535.535,0,0,0,0-1.069h-3.208a.535.535,0,1,0,0,1.069h1.069V4.812Zm4.278,4.812h-2.139V5.882h2.139Z" transform="translate(-352.109 0)" fill="#007e95"/>
      <path id="Path_40" data-name="Path 40" d="M166,413.6a1.6,1.6,0,1,0,1.6-1.6A1.606,1.606,0,0,0,166,413.6Zm2.139,0a.535.535,0,1,1-.535-.535A.535.535,0,0,1,168.139,413.6Z" transform="translate(-157.124 -389.97)" fill="#007e95"/>
      <path id="Path_41" data-name="Path 41" d="M286,413.6a1.6,1.6,0,1,0,1.6-1.6A1.606,1.606,0,0,0,286,413.6Zm2.139,0a.535.535,0,1,1-.535-.535A.535.535,0,0,1,288.139,413.6Z" transform="translate(-270.707 -389.97)" fill="#007e95"/>
      <ellipse id="Ellipse_4" data-name="Ellipse 4" cx="0.382" cy="0.764" rx="0.382" ry="0.764" transform="translate(24.889 13.375)" fill="#007e95"/>
    </g>
  </g>
</svg>
