<svg xmlns="http://www.w3.org/2000/svg" width="264" height="84" viewBox="0 0 264 84">
  <g id="Plastic_Surgery" data-name="Plastic Surgery" transform="translate(-0.035 0.035)">
    <g id="Rectangle_27" data-name="Rectangle 27" transform="translate(0.035 -0.035)" fill="#fff" stroke="#efefef" stroke-width="1">
      <rect width="264" height="84" rx="15" stroke="none"/>
      <rect x="0.5" y="0.5" width="263" height="83" rx="14.5" fill="none"/>
    </g>
    <text id="Plastic_Surgery-2" data-name="Plastic Surgery" transform="translate(79.035 52.965)" fill="#131b39" font-size="21" font-family="Roboto-Black, Roboto" font-weight="800"><tspan x="0" y="0">Plastic Surgery</tspan></text>
    <g id="breast" transform="translate(31.019 25.15)">
      <g id="Group_39" data-name="Group 39">
        <path id="Path_78" data-name="Path 78" d="M60.871,364.028h0l-1.574.007.181-.194a.517.517,0,1,0-.755-.706l-1,1.069a.517.517,0,0,0,0,.71l1.01,1.06a.517.517,0,1,0,.749-.713l-.183-.192,1.574-.007a.517.517,0,0,0,0-1.034Z" transform="translate(-57.581 -337.95)" fill="#007e95"/>
        <path id="Path_79" data-name="Path 79" d="M58.733,152.121a.517.517,0,1,0,.749-.713l-.183-.192,1.574-.007a.517.517,0,0,0,0-1.034h0l-1.574.007.181-.194a.517.517,0,1,0-.755-.706l-1,1.069a.517.517,0,0,0,0,.71Z" transform="translate(-57.581 -138.838)" fill="#007e95"/>
        <path id="Path_80" data-name="Path 80" d="M107.515,239.8a3.7,3.7,0,0,1-5.466-2.017l-.427-1.334a.756.756,0,0,1,.327-.878,3.75,3.75,0,0,0,1.151-1.095l.354-.519a.517.517,0,0,0-.854-.583l-.354.518a2.725,2.725,0,0,1-.836.795,1.788,1.788,0,0,0-.773,2.076l.427,1.334a4.7,4.7,0,0,0,2.868,3,4.769,4.769,0,0,0,1.168.27l.477,1.649.006.018a11.766,11.766,0,0,1,.583,3.211.517.517,0,0,0,.516.5h.021a.517.517,0,0,0,.5-.537,12.8,12.8,0,0,0-.631-3.484l-.4-1.367a4.727,4.727,0,0,0,1.886-.672.517.517,0,1,0-.544-.879Z" transform="translate(-97.589 -217.076)" fill="#007e95"/>
        <path id="Path_81" data-name="Path 81" d="M154.926,0a.517.517,0,0,0-.517.517V3.88a1.79,1.79,0,0,1-.313,1.013L150.818,9.7l-1.55,1.251a.517.517,0,0,0,.1.869l-1.776,2.6a.517.517,0,1,0,.854.583l6.5-9.531a2.821,2.821,0,0,0,.492-1.6V.517A.517.517,0,0,0,154.926,0Z" transform="translate(-141.306 0)" fill="#007e95"/>
        <path id="Path_82" data-name="Path 82" d="M182.66,447.516a.517.517,0,0,0-.517.517v3.432a.517.517,0,0,0,1.034,0v-3.432A.517.517,0,0,0,182.66,447.516Z" transform="translate(-173.556 -416.667)" fill="#007e95"/>
        <path id="Path_83" data-name="Path 83" d="M401.979,255.432a.517.517,0,0,0-.658.32l-.523,1.513a8.894,8.894,0,0,0-.489,2.912V272.6a.517.517,0,1,0,1.034,0V260.177a7.865,7.865,0,0,1,.432-2.574l.523-1.513A.517.517,0,0,0,401.979,255.432Z" transform="translate(-376.684 -237.798)" fill="#007e95"/>
        <path id="Path_84" data-name="Path 84" d="M320.022,7.909l-1.516-2.933a4.971,4.971,0,0,1-.553-2.273V.517a.517.517,0,0,0-1.034,0V2.7a6.01,6.01,0,0,0,.668,2.748l.822,1.59a5.519,5.519,0,0,0-5.417,1.066l-.469.409a.517.517,0,1,0,.68.779l.469-.409a4.5,4.5,0,0,1,7.2,4.855l-.736,2.13a.517.517,0,1,0,.977.338l.736-2.13a5.506,5.506,0,0,0-1.832-6.169Z" transform="translate(-294.783 0)" fill="#007e95"/>
        <path id="Path_85" data-name="Path 85" d="M312.592,241.9a.517.517,0,0,0-.17.711,4.3,4.3,0,0,1,.637,2.252v15.088a.517.517,0,0,0,1.034,0V244.865a5.329,5.329,0,0,0-.79-2.794A.517.517,0,0,0,312.592,241.9Z" transform="translate(-294.783 -225.155)" fill="#007e95"/>
        <path id="Path_86" data-name="Path 86" d="M80.148,213.851l-.631.509a5.681,5.681,0,0,0-.961.991.517.517,0,1,0,.825.624,4.645,4.645,0,0,1,.786-.81l.631-.509a.517.517,0,0,0-.65-.8Z" transform="translate(-77.013 -199.003)" fill="#007e95"/>
        <path id="Path_87" data-name="Path 87" d="M124.915,352.316a4.686,4.686,0,0,1-1.849-.02.517.517,0,1,0-.215,1.011,5.694,5.694,0,0,0,2.259.024.517.517,0,1,0-.2-1.015Z" transform="translate(-117.97 -328)" fill="#007e95"/>
        <path id="Path_88" data-name="Path 88" d="M124.127,178.377a.515.515,0,0,0,.324-.115l1.609-1.3a.517.517,0,0,0-.65-.8l-1.609,1.3a.517.517,0,0,0,.325.919Z" transform="translate(-119.058 -163.908)" fill="#007e95"/>
        <path id="Path_89" data-name="Path 89" d="M64.143,261.079a.517.517,0,0,0-.627.376,5.677,5.677,0,0,0-.1,2.258.517.517,0,0,0,.51.437.525.525,0,0,0,.081-.006.517.517,0,0,0,.431-.591,4.643,4.643,0,0,1,.084-1.846A.517.517,0,0,0,64.143,261.079Z" transform="translate(-62.948 -243.067)" fill="#007e95"/>
        <path id="Path_90" data-name="Path 90" d="M76.286,321.184a.517.517,0,1,0,.594-.847,4.6,4.6,0,0,1-1.268-1.343.517.517,0,1,0-.878.547A5.631,5.631,0,0,0,76.286,321.184Z" transform="translate(-73.478 -296.777)" fill="#007e95"/>
      </g>
    </g>
  </g>
</svg>
