<svg id="Dental_Operations" data-name="Dental Operations" xmlns="http://www.w3.org/2000/svg" width="86.65" height="86.666" viewBox="0 0 86.65 86.666">
  <g id="Color_copy" data-name="Color copy" transform="translate(0)">
    <path id="Path_2862" data-name="Path 2862" d="M56.745,3.167A18.954,18.954,0,0,0,44.4,5.735a12.055,12.055,0,0,1-12.569,0,19.007,19.007,0,0,0-26.273,25.8,43.1,43.1,0,0,1,6.22,21.6v.651a19.559,19.559,0,0,0,3.644,11.369l1.146,1.61a8.442,8.442,0,0,0,6.868,3.53,4.388,4.388,0,0,0,4.074-2.758l1.463-3.646a65.225,65.225,0,0,0,4.269-17.027,4.9,4.9,0,0,1,9.741,0,65.226,65.226,0,0,0,4.269,17.027l1.463,3.645a4.389,4.389,0,0,0,4.07,2.759,9.276,9.276,0,0,0,7.123-3.335,19.564,19.564,0,0,0,4.536-12.523v-1.3a43.1,43.1,0,0,1,6.22-21.6A19.008,19.008,0,0,0,56.745,3.167Z" transform="translate(-2.996 -2.995)" fill="#e9f1f2"/>
    <path id="Path_2863" data-name="Path 2863" d="M60.408,64.106a10.24,10.24,0,0,1-9.826-7.36l-.239-.813A46.263,46.263,0,0,1,48.478,43.5a10.24,10.24,0,0,0-10.24-10.11H35.073a24.117,24.117,0,0,1-18.83-9.052,14.138,14.138,0,0,1-2.624-12.479L15.788,3.72A18.995,18.995,0,0,0,5.558,31.2a43.1,43.1,0,0,1,6.22,21.6v.651a19.559,19.559,0,0,0,3.644,11.369l1.146,1.61a8.442,8.442,0,0,0,6.868,3.53A4.388,4.388,0,0,0,27.51,67.2l1.463-3.646a65.225,65.225,0,0,0,4.269-17.027,4.9,4.9,0,0,1,9.745,0,65.226,65.226,0,0,0,4.269,17.027L48.718,67.2a4.388,4.388,0,0,0,4.065,2.759,9.276,9.276,0,0,0,7.123-3.335,19.54,19.54,0,0,0,1.767-2.516Z" transform="translate(-2.995 -2.66)" fill="#d0d8da"/>
    <path id="Path_2864" data-name="Path 2864" d="M0,0H8.777V35.108a4.389,4.389,0,0,1-8.777,0V0Z" transform="translate(52.52 58.742) rotate(-45)" fill="#00b4d8"/>
    <path id="Path_2865" data-name="Path 2865" d="M69.939,65.551a4.389,4.389,0,0,1-6.205,0l-7.095-7.093A18.948,18.948,0,0,0,59.6,53.39L45.115,38.908l-6.207,6.207L63.734,69.939a4.378,4.378,0,0,0,6.884-5.3,4.326,4.326,0,0,1-.679.908Z" transform="translate(13.626 13.626)" fill="#0096c7"/>
    <ellipse id="Ellipse_2805" data-name="Ellipse 2805" cx="19.091" cy="19.091" rx="19.091" ry="19.091" transform="translate(36.363 36.363)" fill="#ade8f4"/>
    <g id="Group_102" data-name="Group 102" transform="translate(36.583 39.394)">
      <path id="Path_2866" data-name="Path 2866" d="M54.329,56.3A19.007,19.007,0,0,1,36.736,30.074,19.01,19.01,0,1,0,64.609,53.263,18.9,18.9,0,0,1,54.329,56.3Z" transform="translate(-28.004 -29.856)" fill="#48cae4"/>
      <ellipse id="Ellipse_2806" data-name="Ellipse 2806" cx="16.06" cy="16.06" rx="16.06" ry="16.06" transform="translate(2.811 0)" fill="#48cae4"/>
      <path id="Path_2867" data-name="Path 2867" d="M41.777,33a15.993,15.993,0,0,0-8.761,2.605c0,.107-.016.212-.016.32A18.961,18.961,0,0,0,57.005,54.259,16.065,16.065,0,0,0,41.777,33Z" transform="translate(-25.691 -28.502)" fill="#48cae4"/>
    </g>
    <path id="Path_2868" data-name="Path 2868" d="M46.091,30A16.091,16.091,0,1,0,62.182,46.091,16.091,16.091,0,0,0,46.091,30Zm7.314,26.331A19.017,19.017,0,0,1,34.389,37.314c0-.108.015-.214.016-.32A16.071,16.071,0,0,1,58.4,55.648a19.028,19.028,0,0,1-4.99.683Z" transform="translate(9.503 9.503)" fill="#00b4d8"/>
    <path id="Path_2869" data-name="Path 2869" d="M45.67,30a16.09,16.09,0,0,0-14.759,9.687,64.658,64.658,0,0,0,3.42,11.706l1.463,3.645a4.389,4.389,0,0,0,4.07,2.756,9.276,9.276,0,0,0,7.123-3.335,19.564,19.564,0,0,0,4.536-12.523v-1.3A38.3,38.3,0,0,1,52.631,31.6,16,16,0,0,0,45.67,30Z" transform="translate(9.925 9.503)" fill="#e9f1f2"/>
    <path id="Path_2870" data-name="Path 2870" d="M46.353,55.118a8.484,8.484,0,0,0,.635-.661,19.542,19.542,0,0,0,1.766-2.515H47.488a10.24,10.24,0,0,1-9.826-7.36l-.239-.813A45.229,45.229,0,0,1,35.9,35.927,16.056,16.056,0,0,1,51.71,37.118a39.552,39.552,0,0,1,.92-5.518,16.047,16.047,0,0,0-21.72,8.09,64.655,64.655,0,0,0,3.422,11.7l1.463,3.645a4.389,4.389,0,0,0,4.07,2.756,9.258,9.258,0,0,0,6.3-2.487Z" transform="translate(9.924 9.503)" fill="#d0d8da"/>
    <path id="Path_2871" data-name="Path 2871" d="M33.967,36.2c0-.108.015-.214.016-.32a16.155,16.155,0,0,1,1.887-1.053c-.089-.81-.162-1.621-.211-2.434a16.123,16.123,0,0,0-4.75,6.183,64.659,64.659,0,0,0,3.422,11.7l1.463,3.645a4.389,4.389,0,0,0,4.07,2.756,9.266,9.266,0,0,0,6.5-2.67,19.007,19.007,0,0,1-12.4-17.81Z" transform="translate(9.924 10.613)" fill="#b8bebf"/>
    <path id="Path_2872" data-name="Path 2872" d="M58.554,12.777a8.777,8.777,0,0,0-8.777,8.777A8.777,8.777,0,0,0,41,12.777,8.777,8.777,0,0,0,49.777,4,8.777,8.777,0,0,0,58.554,12.777Z" transform="translate(14.594 -2.531)" fill="#fcf2ad"/>
    <path id="Path_2873" data-name="Path 2873" d="M24.628,26.314a7.314,7.314,0,0,0-7.314,7.314A7.314,7.314,0,0,0,10,26.314,7.314,7.314,0,0,0,17.314,19a7.314,7.314,0,0,0,7.314,7.314Z" transform="translate(0.246 4.412)" fill="#fcf2ad"/>
    <path id="Path_2874" data-name="Path 2874" d="M47.7,40.851A5.851,5.851,0,0,0,41.851,46.7,5.851,5.851,0,0,0,36,40.851,5.851,5.851,0,0,0,41.851,35,5.851,5.851,0,0,0,47.7,40.851Z" transform="translate(12.28 11.817)" fill="#fcf2ad"/>
    <path id="Path_2875" data-name="Path 2875" d="M58.554,12.777a8.777,8.777,0,0,0-8.777,8.777A8.777,8.777,0,0,0,41,12.777,8.777,8.777,0,0,0,49.777,4C49.777,12.748,49.806,12.777,58.554,12.777Z" transform="translate(14.594 -2.531)" fill="#f9dbaf"/>
    <path id="Path_2876" data-name="Path 2876" d="M24.628,26.314a7.314,7.314,0,0,0-7.314,7.314A7.314,7.314,0,0,0,10,26.314,7.314,7.314,0,0,0,17.314,19C17.314,26.94,16.688,26.314,24.628,26.314Z" transform="translate(0.246 4.412)" fill="#f9dbaf"/>
    <path id="Path_2877" data-name="Path 2877" d="M47.7,40.851A5.851,5.851,0,0,0,41.851,46.7,5.851,5.851,0,0,0,36,40.851,5.851,5.851,0,0,0,41.851,35C41.851,42.133,40.57,40.851,47.7,40.851Z" transform="translate(12.28 11.817)" fill="#f9dbaf"/>
    <path id="Path_2878" data-name="Path 2878" d="M17.628,55.389H13.24V51H7.389v4.389H3V61.24H7.389v4.389H13.24V61.24h4.389Z" transform="translate(-2.993 19.223)" fill="#ade8f4"/>
    <path id="Path_2879" data-name="Path 2879" d="M13.24,58.314a2.926,2.926,0,0,1-2.926-2.926V51H7.389v4.389H3V61.24H7.389v4.389H13.24V61.24h4.389V58.314Z" transform="translate(-2.993 19.223)" fill="#48cae4"/>
    <path id="Path_2880" data-name="Path 2880" d="M18,11.389a6.112,6.112,0,0,0,6.729,1.3,16.341,16.341,0,0,1,12.873,0,6.112,6.112,0,0,0,6.729-1.3L41.758,9.844A19.959,19.959,0,0,0,22.569,9.1Z" transform="translate(3.949 -1.142)" fill="#d0d8da"/>
    <path id="Path_2881" data-name="Path 2881" d="M43.463,36.7a1.463,1.463,0,0,1-.813-2.68l13.166-8.777A1.472,1.472,0,0,1,56.629,25h8.777a1.463,1.463,0,0,1,0,2.926H57.068l-12.8,8.531A1.463,1.463,0,0,1,43.463,36.7Z" transform="translate(15.057 7.189)" fill="#e9f1f2"/>
    <path id="Path_2882" data-name="Path 2882" d="M32.091,62.554H17.463a1.463,1.463,0,1,1,0-2.926H31.486l14.2-14.2A1.463,1.463,0,1,1,47.754,47.5L33.125,62.125A1.463,1.463,0,0,1,32.091,62.554Z" transform="translate(3.023 16.446)" fill="#e9f1f2"/>
    <ellipse id="Ellipse_2807" data-name="Ellipse 2807" cx="3.657" cy="3.657" rx="3.657" ry="3.657" transform="translate(76.806 29.995)" fill="#ff7373"/>
    <path id="Path_2883" data-name="Path 2883" d="M60.99,28.881a3.657,3.657,0,0,1-3.657-3.657,3.619,3.619,0,0,1,.329-1.5,3.657,3.657,0,1,0,4.827,4.827,3.619,3.619,0,0,1-1.5.329Z" transform="translate(21.301 6.599)" fill="#ef5350"/>
  </g>
</svg>
