<svg xmlns="http://www.w3.org/2000/svg" xmlns:xlink="http://www.w3.org/1999/xlink" width="335.467" height="246.552" viewBox="0 0 335.467 246.552">
  <defs>
    <linearGradient id="linear-gradient" x1="0.5" x2="0.5" y2="1" gradientUnits="objectBoundingBox">
      <stop offset="0" stop-color="#72b9e4"/>
      <stop offset="1" stop-color="#395d72"/>
    </linearGradient>
    <linearGradient id="linear-gradient-2" x1="0.5" x2="0.5" y2="1" gradientUnits="objectBoundingBox">
      <stop offset="0" stop-color="#4e87a6"/>
      <stop offset="1" stop-color="#72b9e4"/>
    </linearGradient>
  </defs>
  <g id="footer-logo" transform="translate(-361.467 -367.938)">
    <g id="Group_38203" data-name="Group 38203" transform="translate(379.543 367.938)">
      <path id="Path_1" data-name="Path 1" d="M541.23,412.025l-.01.01v-.01Z" transform="translate(-389.82 -374.892)" fill="#66a61b"/>
      <path id="Path_2" data-name="Path 2" d="M574.575,547.258l-.01.031c-.137-.063-.263-.126-.391-.189l.085.031C574.269,547.131,574.385,547.184,574.575,547.258Z" transform="translate(-395.018 -396.198)" fill="none"/>
      <path id="Path_3" data-name="Path 3" d="M574.143,547.084l-.168-.074V547C574.027,547.031,574.09,547.052,574.143,547.084Z" transform="translate(-394.987 -396.182)" fill="#111e72"/>
      <path id="Path_4" data-name="Path 4" d="M562.278,460.707a89.056,89.056,0,0,1-13.2,46.633,66.174,66.174,0,0,1-7.221-4.559,81.077,81.077,0,0,0-.148-84.407c-1.457-2.4-3.037-4.724-4.715-6.957a87.6,87.6,0,0,0-16.01-16.265q-3.445-2.675-7.172-5.02a90.6,90.6,0,0,0-48.474-13.926c-36.439,0-68.681,21.108-82.013,53.106h25.861c11.64-19.087,32.921-30.84,56.152-30.84a66.836,66.836,0,0,1,32.452,8.339,64.65,64.65,0,0,1,23.195,21.709,61.7,61.7,0,0,1,4.7,9.049,59.515,59.515,0,0,1,.086,46.053,9.121,9.121,0,0,0-.8-1.63c-.271-.6-.518-1.193-.765-1.8-.506-1.24-.963-2.492-1.358-3.767a54.023,54.023,0,0,1-2.023-8.918c-1.494-10.716.68-19.911-4.518-30.038-.691-1.346-1.469-2.681-2.321-4a55,55,0,0,0-13.738-15.1l-.2-.153c-.037-.023-.062-.047-.1-.071-.419-.331-.864-.638-1.3-.945a51.629,51.629,0,0,0-5.53-3.543,45.78,45.78,0,0,0-6.789-3.131l-.037.083a58.3,58.3,0,0,0-20.96-3.874c-20.9,0-39.994,10.973-49.808,28.643l-1.209,2.2h-43.08l1.826-5.41c12.973-38.412,50.055-64.232,92.271-64.232A99.494,99.494,0,0,1,521,384.805c2.469,1.689,4.851,3.449,7.147,5.327a95.055,95.055,0,0,1,16.022,16.679c1.679,2.244,3.26,4.547,4.728,6.934A89.189,89.189,0,0,1,562.278,460.707Z" transform="translate(-371.245 -367.938)" fill="url(#linear-gradient)"/>
      <path id="Path_5" data-name="Path 5" d="M601.853,406.74a53.86,53.86,0,0,1,47.661,28.643l1.169,2.2h41.211l-1.748-5.41a92.67,92.67,0,0,0-140.5-48.062c.9.662,3.437,2.551,6.745,5.433a84.425,84.425,0,0,1,123.94,39.77H655.6a62.154,62.154,0,0,0-83.721-23.1,69.88,69.88,0,0,1,4.465,6.969A53.574,53.574,0,0,1,601.853,406.74Z" transform="translate(-391.149 -367.938)" fill="#007e95"/>
      <path id="Path_6" data-name="Path 6" d="M477.34,529.7a81.675,81.675,0,0,0,4.512,6.934,62.156,62.156,0,0,1-84.489-24.309H372.842a84.438,84.438,0,0,0,124.271,41.116,71.682,71.682,0,0,0,6.957,5.292,92.588,92.588,0,0,1-107.9-2.327,93.475,93.475,0,0,1-33.061-47l-1.642-5.351h40.94l1.145,2.28A53.935,53.935,0,0,0,477.34,529.7Z" transform="translate(-361.467 -389.408)" fill="#149ada"/>
      <g id="Group_1" data-name="Group 1" transform="translate(108.417 47.767)">
        <path id="Path_7" data-name="Path 7" d="M682.516,491.528l-1.724,5.351a93.8,93.8,0,0,1-34.724,47A101.289,101.289,0,0,1,531.7,545.543c-.249-.166-.5-.343-.745-.52s-.5-.343-.744-.52c-.671-.473-1.34-.933-2.01-1.417l-.012-.012c-.187-.131-.36-.272-.533-.4-.025-.012-.037-.035-.062-.047-.521-.39-1.03-.792-1.538-1.193l-.211-.165c-.447-.355-.88-.708-1.315-1.063a101.721,101.721,0,0,1-12.418-12.284,93.751,93.751,0,0,1-10.52-14.836c-.831-1.465-1.613-2.953-2.357-4.465a90.4,90.4,0,0,1-5.917-15.638,88.825,88.825,0,0,1-2.89-16.8c-.162-2.173-.236-4.346-.236-6.532a88.769,88.769,0,0,1,12.27-45,52.484,52.484,0,0,1,7.145,4.76,80.772,80.772,0,0,0,1.254,82.564,84.185,84.185,0,0,0,4.751,6.969A86.932,86.932,0,0,0,531.7,535.2c2.307,1.783,4.714,3.461,7.195,5.032a91.513,91.513,0,0,0,48.718,13.914c37.268,0,69.895-21.616,82.946-54.346H644.8c-11.525,19.856-33.186,32.08-57.192,32.08A67.439,67.439,0,0,1,555,523.537a64.784,64.784,0,0,1-7.208-4.595,63.72,63.72,0,0,1-16.09-17.115,60.323,60.323,0,0,1-4.74-9.036,59.271,59.271,0,0,1-1.178-43.266,37.439,37.439,0,0,1,1.613,4.2c1.377,4.406,1.34,8.812,1.3,13.477a65.775,65.775,0,0,0,.41,9.71,55.152,55.152,0,0,0,6.1,18.556,55.124,55.124,0,0,0,15.458,17.777c.248.177.509.342.756.52a67.607,67.607,0,0,0,7.245,4.547q2.643,1.435,5.472,2.716v.012l.2.083c.149.071.3.141.459.212l.012-.035a72.059,72.059,0,0,0,22.677,3.65q2.606,0,5.36-.212c14.489-1.17,34.686-7.855,48.755-33.061.025-.047.062-.106.087-.153Z" transform="translate(-490.188 -424.65)" fill="url(#linear-gradient-2)"/>
      </g>
      <path id="Path_8" data-name="Path 8" d="M517.685,549.654h0l0,0h0Z" transform="translate(-386.109 -396.601)" fill="#0090df"/>
    </g>
    <g id="Group_5" data-name="Group 5" transform="translate(361.467 585.246)">
      <path id="Path_10" data-name="Path 10" d="M445.887,634.205c0-1.1-.979-1.435-1.458-2.208s-.417-.29-1.208-.75-.339-.279-1.333-.5a5.787,5.787,0,0,0-1.957-.167c-1.03,0-.84.529-1.833.75s-.977.581-1.749,1.041-.124.352-.583,1.124-.833.479-.833,1.583l.249,11.537c0,1.1.083,2.458,0,0-.03-.9-.016-.543.756-.083s-.987,2.653.006,2.874a14.071,14.071,0,0,0,6.068,0,8.7,8.7,0,0,0,2.625-.666c.79-.459.022-.269.5-1.041s.5.062.5-1.041l.709-2.5h3.311a1.131,1.131,0,0,1,1.1,1.1v1.71a7.537,7.537,0,0,1-.91,3.835,7.377,7.377,0,0,1-2.4,2.538,10.579,10.579,0,0,1-3.365,1.407,17.122,17.122,0,0,1-7.724,0,10.263,10.263,0,0,1-3.338-1.407,7.238,7.238,0,0,1-2.345-2.538,7.736,7.736,0,0,1-.883-3.835V634.229a7.732,7.732,0,0,1,.883-3.834,7.234,7.234,0,0,1,2.345-2.538,10.251,10.251,0,0,1,3.338-1.407,17.122,17.122,0,0,1,7.724,0,10.586,10.586,0,0,1,3.365,1.407,7.373,7.373,0,0,1,2.4,2.538,7.533,7.533,0,0,1,.91,3.834v1.656a1.131,1.131,0,0,1-1.1,1.1h-3.311Zm-1.417,10.286a1.059,1.059,0,0,1,.772-.331h1.1v1.931a4.147,4.147,0,0,1-.524,2.152,4.3,4.3,0,0,1-1.379,1.434,6.538,6.538,0,0,1-1.931.828,9.2,9.2,0,0,1-4.469,0,6.523,6.523,0,0,1-1.931-.828,4.274,4.274,0,0,1-1.38-1.434,4.139,4.139,0,0,1-.525-2.152V635.056a4.022,4.022,0,0,1,.525-2.1,4.532,4.532,0,0,1,1.38-1.462,6.1,6.1,0,0,1,1.931-.855,9.171,9.171,0,0,1,4.469,0,6.111,6.111,0,0,1,1.931.855,4.557,4.557,0,0,1,1.379,1.462,4.03,4.03,0,0,1,.524,2.1v1.931h-1.1a1.131,1.131,0,0,1-1.1-1.1v-.828a1.981,1.981,0,0,0-1.214-1.876,6.078,6.078,0,0,0-5.3,0,1.983,1.983,0,0,0-1.214,1.876v11.035a1.968,1.968,0,0,0,1.214,1.9,6.341,6.341,0,0,0,5.3,0,1.967,1.967,0,0,0,1.214-1.9v-.827A1.059,1.059,0,0,1,444.471,644.491Z" transform="translate(-429.795 -625.952)" fill="#007e95"/>
      <path id="Path_11" data-name="Path 11" d="M485.057,655.184h-1.1a1.132,1.132,0,0,1-1.1-1.1V627.047a1.131,1.131,0,0,1,1.1-1.1h1.1Zm0-29.241h3.31a1.131,1.131,0,0,1,1.1,1.1v27.034a1.131,1.131,0,0,1-1.1,1.1h-3.31Z" transform="translate(-438.164 -625.942)" fill="#007e95"/>
      <path id="Path_12" data-name="Path 12" d="M519.206,626.274a1.059,1.059,0,0,1,.772-.331h11.256a11.433,11.433,0,0,1,4.413.8,9.576,9.576,0,0,1,3.228,2.124,8.948,8.948,0,0,1,1.958,3.007,9.331,9.331,0,0,1,.663,3.449,9.18,9.18,0,0,1-.442,2.813A8.373,8.373,0,0,1,539.7,640.7a9.3,9.3,0,0,1-2.289,2.1,9.208,9.208,0,0,1-3.2,1.3q2.151,2.814,4.248,5.572l4.193,5.517H539.9q-1.1-1.38-3.448-4.441t-6.428-8.524h1.214a9.554,9.554,0,0,0,3.559-.607,7.593,7.593,0,0,0,2.51-1.572,6.33,6.33,0,0,0,1.49-2.207,6.708,6.708,0,0,0,.5-2.51,7.027,7.027,0,0,0-2.068-4.938,7.511,7.511,0,0,0-2.511-1.628,9.17,9.17,0,0,0-3.475-.606H521.083v27.034h-1.1a1.131,1.131,0,0,1-1.1-1.1V627.047A1.059,1.059,0,0,1,519.206,626.274Zm1.292,1.049H532.41a9.2,9.2,0,0,1,2.874,1.041,13.15,13.15,0,0,1,2.833,1.833,12.815,12.815,0,0,1,1.416,2.832,25.1,25.1,0,0,1,.666,4.374c0,.589-1.3,1.447-1.541,2a12.726,12.726,0,0,1-2.208,2.25,16.114,16.114,0,0,1-3.124,1.333,24.426,24.426,0,0,1-4.665.416l-8.372-.416Zm14.708,27.861a1.5,1.5,0,0,1-1.021-.359,4.274,4.274,0,0,1-.69-.745l-7.282-9.655H525.5v9.655a1.131,1.131,0,0,1-1.1,1.1h-3.31V642.219h8.937l9.876,12.965Zm-1.241-18.152a2.228,2.228,0,0,0,.91-1.71,2.543,2.543,0,0,0-.938-1.9,3.879,3.879,0,0,0-2.7-.855H525.5V637.8h5.738A4.136,4.136,0,0,0,533.965,637.032Z" transform="translate(-443.846 -625.942)" fill="#007e95"/>
      <path id="Path_13" data-name="Path 13" d="M572.258,628.15v-1.1a1.131,1.131,0,0,1,1.1-1.1h19.862a1.131,1.131,0,0,1,1.1,1.1v1.1Zm.331,3.7a1.058,1.058,0,0,1-.331-.772V628.15h9.931v27.034h-1.1a1.131,1.131,0,0,1-1.1-1.1v-21.9h-6.621A1.059,1.059,0,0,1,572.589,631.846Zm21.738-.772a1.131,1.131,0,0,1-1.1,1.1H586.6v21.9a1.131,1.131,0,0,1-1.1,1.1h-3.31V628.15h12.138Z" transform="translate(-452.266 -625.942)" fill="#007e95"/>
      <g id="Group_3" data-name="Group 3" transform="translate(215.418 0.054)">
        <path id="Path_14" data-name="Path 14" d="M508.071,697.167a5.232,5.232,0,0,0-.716-2.81,5.381,5.381,0,0,0-1.9-1.845,9.286,9.286,0,0,0-2.672-1.019,14.1,14.1,0,0,0-6.057,0,8.911,8.911,0,0,0-2.643,1.019,5.219,5.219,0,0,0-1.845,1.845,5.4,5.4,0,0,0-.689,2.81v12.72a5.4,5.4,0,0,0,.689,2.809,5.213,5.213,0,0,0,1.845,1.845,8.909,8.909,0,0,0,2.643,1.018,14.048,14.048,0,0,0,6.057,0,9.284,9.284,0,0,0,2.672-1.018,5.375,5.375,0,0,0,1.9-1.845,5.234,5.234,0,0,0,.716-2.809v-2.809h1.1a1.131,1.131,0,0,1,1.1,1.1v1.707a7.519,7.519,0,0,1-.909,3.828,7.358,7.358,0,0,1-2.4,2.532,10.554,10.554,0,0,1-3.358,1.4,17.107,17.107,0,0,1-7.71,0,10.231,10.231,0,0,1-3.332-1.4,7.207,7.207,0,0,1-2.34-2.532,7.716,7.716,0,0,1-.881-3.828v-12.72a7.715,7.715,0,0,1,.881-3.829,7.206,7.206,0,0,1,2.34-2.532,10.229,10.229,0,0,1,3.332-1.4,17.107,17.107,0,0,1,7.71,0,10.551,10.551,0,0,1,3.358,1.4,7.357,7.357,0,0,1,2.4,2.532,7.519,7.519,0,0,1,.909,3.829v1.65a1.131,1.131,0,0,1-1.1,1.1h-1.1Zm-4.076,10.243a1.059,1.059,0,0,1,.772-.332h3.3l.573,2.03c0,.845.766,1.823.416,2.411a17.237,17.237,0,0,1-2.245,3.284,11.71,11.71,0,0,1-2.37,1.622,24.932,24.932,0,0,1-3.7-.074,15.916,15.916,0,0,1-2.952-.009,15.4,15.4,0,0,1-3.035-.624,16.709,16.709,0,0,1-2.868-2.7,7.965,7.965,0,0,1-.707-2.994V698.009a19.906,19.906,0,0,1,.791-4.7,4.531,4.531,0,0,1,1.376-1.459,6.1,6.1,0,0,1,1.928-.854,9.185,9.185,0,0,1,4.461,0c.716.183,2.226-.236,2.794.15s5.128,1.99,5.476,2.578a4.023,4.023,0,0,1,.523,2.094l-.261,4.1h-3.5a1.131,1.131,0,0,1-1.1-1.1v-.825a1.982,1.982,0,0,0-1.211-1.874,6.078,6.078,0,0,0-5.288,0,1.983,1.983,0,0,0-1.212,1.874v11.013a1.966,1.966,0,0,0,1.212,1.9,6.329,6.329,0,0,0,5.288,0,1.965,1.965,0,0,0,1.211-1.9v-.825A1.055,1.055,0,0,1,503.995,707.41Z" transform="translate(-489.346 -688.906)" fill="#007e95"/>
        <path id="Path_15" data-name="Path 15" d="M536.143,717.775a1.06,1.06,0,0,1-.771.329h-1.1l-3.407-14.264c0-1.139.727-6.62.25-7.483s-1.6-.909-2.37-1.5.552-.181-.458-.458.78-.332-.248-.332-1-.483-2-.208-1.931-.328-2.7.242a6.29,6.29,0,0,0-1.845,2.148,6.411,6.411,0,0,0-.688,3.056l-3.057,18.8h-1.1a1.127,1.127,0,0,1-1.1-1.1V698a8.66,8.66,0,0,1,.881-4.021,8.428,8.428,0,0,1,2.341-2.836,10.017,10.017,0,0,1,3.331-1.68,13.606,13.606,0,0,1,3.855-.55,13.893,13.893,0,0,1,3.883.55,9.972,9.972,0,0,1,3.358,1.68,8.694,8.694,0,0,1,2.368,2.836,8.433,8.433,0,0,1,.91,4.021v19A1.057,1.057,0,0,1,536.143,717.775Zm-15.667-21.727a4.611,4.611,0,0,1,1.4-1.515,6.6,6.6,0,0,1,1.928-.908,7.694,7.694,0,0,1,2.147-.3,8.294,8.294,0,0,1,2.2.3,5.842,5.842,0,0,1,1.955.936,5.38,5.38,0,0,1,1.4,1.542,3.9,3.9,0,0,1,.551,2.066v6.719H519.952v-6.719A4.169,4.169,0,0,1,520.476,696.048ZM530.967,718.1a1.13,1.13,0,0,1-1.1-1.1v-7.71h-7.709V717a1.128,1.128,0,0,1-1.1,1.1h-3.576V707.09H534.6l-.334,11.014Zm-1.1-15.419v-4.516a2.142,2.142,0,0,0-1.239-1.956,5.422,5.422,0,0,0-2.671-.689,5.322,5.322,0,0,0-2.588.661,2.13,2.13,0,0,0-1.212,1.984v4.516Z" transform="translate(-482.506 -688.917)" fill="#007e95"/>
        <path id="Path_16" data-name="Path 16" d="M542.076,689.246a1.061,1.061,0,0,1,.771-.329h11.235a11.416,11.416,0,0,1,4.4.8,9.543,9.543,0,0,1,3.222,2.119,8.926,8.926,0,0,1,1.956,3,9.313,9.313,0,0,1,.66,3.442,9.186,9.186,0,0,1-.439,2.808,8.385,8.385,0,0,1-1.35,2.56,9.318,9.318,0,0,1-2.285,2.094,9.217,9.217,0,0,1-3.193,1.294q2.145,2.807,4.24,5.561l4.186,5.507h-2.753q-1.1-1.375-3.443-4.432t-6.416-8.509h1.212a9.545,9.545,0,0,0,3.552-.606,7.585,7.585,0,0,0,2.506-1.569,6.346,6.346,0,0,0,1.487-2.2,6.7,6.7,0,0,0,.5-2.506,7.024,7.024,0,0,0-2.064-4.93,7.512,7.512,0,0,0-2.507-1.624,9.156,9.156,0,0,0-3.469-.605H543.948V718.1h-1.1a1.127,1.127,0,0,1-1.1-1.1V690.018A1.057,1.057,0,0,1,542.076,689.246Zm.9,1.457,9.563-.956a14.193,14.193,0,0,1,3.575.5,15.813,15.813,0,0,1,3.326,1.331,20.986,20.986,0,0,1,2.121,3.45c.257.588,1.206,1.828,1.206,2.453a5.083,5.083,0,0,1-.375,1.871c-.239.55.329,1.47-.166,1.912s-1.445,1.972-2.161,2.248-3.208,1.868-4.2,1.868l-11.921-.216Zm15.066,27.4a1.5,1.5,0,0,1-1.019-.358,4.308,4.308,0,0,1-.689-.743l-7.269-9.637h-.716V717a1.124,1.124,0,0,1-1.1,1.1h-3.305V705.163h8.922L562.978,718.1Zm-1.24-18.118a2.225,2.225,0,0,0,.909-1.708,2.535,2.535,0,0,0-.936-1.9,3.871,3.871,0,0,0-2.7-.854h-5.728v5.232h5.728A4.129,4.129,0,0,0,556.807,699.987Z" transform="translate(-475.665 -688.917)" fill="#007e95"/>
        <path id="Path_17" data-name="Path 17" d="M571.241,691.12V715.9h17.347v2.2h-18.45a1.127,1.127,0,0,1-1.1-1.1V690.018a1.127,1.127,0,0,1,1.1-1.1h18.45v2.2Zm-.453,13.676.062-13.969,17.739.292v4.4H575.646v4.681h12.943v4.13Zm-.436,12.254.889-13.095,17.347.381v2.2H575.646V711.5h12.943v4.4Z" transform="translate(-468.54 -688.917)" fill="#007e95"/>
      </g>
      <g id="Group_4" data-name="Group 4" transform="translate(164.676 0)">
        <path id="Path_18" data-name="Path 18" d="M645.364,631.021A8.78,8.78,0,0,0,643,628.174a9.959,9.959,0,0,0-3.369-1.676,13.793,13.793,0,0,0-3.891-.556,13.474,13.474,0,0,0-3.858.556,9.99,9.99,0,0,0-3.344,1.676,8.509,8.509,0,0,0-2.342,2.847,8.653,8.653,0,0,0-.884,4.026v19.035a1.137,1.137,0,0,0,1.1,1.1h4.413a1.065,1.065,0,0,0,.775-.328,1.078,1.078,0,0,0,.328-.775v-7.724h7.724v7.724a1.087,1.087,0,0,0,.337.775,1.06,1.06,0,0,0,.766.328h4.422a1.06,1.06,0,0,0,.766-.328,1.087,1.087,0,0,0,.337-.775V635.047A8.454,8.454,0,0,0,645.364,631.021Zm-5.711,8.717H631.93v-4.523a2.132,2.132,0,0,1,1.213-1.988,5.312,5.312,0,0,1,2.594-.665,5.379,5.379,0,0,1,2.678.691,2.151,2.151,0,0,1,1.238,1.963Z" transform="translate(-625.31 -625.942)" fill="#007e95"/>
      </g>
      <rect id="Rectangle_2" data-name="Rectangle 2" width="2.724" height="8.472" transform="translate(252.345 13.823)" fill="#007e95"/>
      <rect id="Rectangle_3" data-name="Rectangle 3" width="2.724" height="8.472" transform="translate(262.777 13.449)" fill="#007e95"/>
      <rect id="Rectangle_4" data-name="Rectangle 4" width="10.799" height="3.866" transform="translate(253.342 15.248)" fill="#007e95"/>
    </g>
  </g>
</svg>
