<svg xmlns="http://www.w3.org/2000/svg" width="19" height="20" viewBox="0 0 19 20">
  <path id="translate-language_1_" data-name="translate-language (1)" d="M14.022,7h1a1,1,0,0,1,1,1V9a1,1,0,0,0,2,0V8a3,3,0,0,0-3-3h-1a1,1,0,0,0,0,2Zm-4,9h-1a1,1,0,0,1-1-1V14a1,1,0,0,0-2,0v1a3,3,0,0,0,3,3h1a1,1,0,0,0,0-2Zm11-1a1,1,0,0,0,0-2h-3v-.5a1,1,0,0,0-2,0V13h-3a1,1,0,0,0,0,2h5.184a6.728,6.728,0,0,1-1.226,2.527,6.668,6.668,0,0,1-.629-.983,1,1,0,0,0-1.779.912,8.678,8.678,0,0,0,.959,1.468,6.618,6.618,0,0,1-2.425,1.1,1,1,0,1,0,.427,1.954,8.635,8.635,0,0,0,3.445-1.622,8.724,8.724,0,0,0,3.469,1.621,1,1,0,1,0,.431-1.953,6.725,6.725,0,0,1-2.446-1.09A8.736,8.736,0,0,0,20.244,15ZM9.052,11.243a1,1,0,1,0,1.94-.485L9.235,3.728a2.281,2.281,0,0,0-4.426,0l-1.757,7.03a1,1,0,1,0,1.94.485L5.553,9H8.491ZM6.053,7l.7-2.787a.291.291,0,0,1,.545,0L7.991,7Z" transform="translate(-3.022 -2)" fill="#131b39"/>
</svg>
