<svg xmlns="http://www.w3.org/2000/svg" width="68" height="49.976" viewBox="0 0 68 49.976">
  <g id="nav-logo" transform="translate(-361.467 -367.938)">
    <g id="Group_38203" data-name="Group 38203" transform="translate(365.131 367.938)">
      <path id="Path_1" data-name="Path 1" d="M541.222,412.025l0,0v0Z" transform="translate(-510.531 -404.498)" fill="#fff"/>
      <path id="Path_2" data-name="Path 2" d="M574.255,547.132l0,.006-.079-.038.017.006Z" transform="translate(-537.859 -516.512)" fill="#fff"/>
      <path id="Path_3" data-name="Path 3" d="M574.008,547.017l-.034-.015v0C573.985,547.006,574,547.011,574.008,547.017Z" transform="translate(-537.693 -516.429)" fill="#fff"/>
      <path id="Path_4" data-name="Path 4" d="M408.3,386.742a18.661,18.661,0,0,1-2.559,9.453,12.772,12.772,0,0,1-1.4-.924,17.069,17.069,0,0,0-.029-17.109c-.283-.486-.589-.958-.915-1.41a17.415,17.415,0,0,0-3.105-3.3,17.119,17.119,0,0,0-26.7,6.924H378.6a12.6,12.6,0,0,1,17.186-4.561,12.408,12.408,0,0,1,1.393.934,12.515,12.515,0,0,1,4.018,5.3,12.566,12.566,0,0,1,.017,9.335,1.886,1.886,0,0,0-.156-.33c-.053-.122-.1-.242-.148-.364-.1-.251-.187-.505-.263-.764a11.371,11.371,0,0,1-.392-1.808c-.29-2.172.132-4.036-.876-6.089-.134-.273-.285-.543-.45-.812a10.988,10.988,0,0,0-2.665-3.06l-.038-.031-.019-.014c-.081-.067-.167-.129-.251-.192a9.963,9.963,0,0,0-1.073-.718,8.7,8.7,0,0,0-1.317-.635l-.007.017a10.935,10.935,0,0,0-13.726,5.021l-.235.445h-8.356l.354-1.1a18.793,18.793,0,0,1,28.693-9.6c.479.342.941.7,1.386,1.08a18.925,18.925,0,0,1,3.108,3.381c.326.455.632.922.917,1.405A18.686,18.686,0,0,1,408.3,386.742Z" transform="translate(-369.575 -367.938)" fill="#fff"/>
      <path id="Path_5" data-name="Path 5" d="M560.228,375.8a10.918,10.918,0,0,1,9.661,5.806l.237.445h8.354l-.354-1.1a18.784,18.784,0,0,0-28.48-9.742c.182.134.7.517,1.367,1.1a17.113,17.113,0,0,1,25.123,8.061h-5.014a12.6,12.6,0,0,0-16.97-4.683,14.171,14.171,0,0,1,.905,1.413A10.86,10.86,0,0,1,560.228,375.8Z" transform="translate(-517.518 -367.938)" fill="#fff"/>
      <path id="Path_6" data-name="Path 6" d="M384.955,509.25a16.548,16.548,0,0,0,.915,1.405,12.6,12.6,0,0,1-17.126-4.927h-4.97a17.116,17.116,0,0,0,25.19,8.334,14.545,14.545,0,0,0,1.41,1.073,18.768,18.768,0,0,1-21.872-.472,18.948,18.948,0,0,1-6.7-9.527l-.333-1.085h8.3l.232.462a10.933,10.933,0,0,0,14.957,4.736Z" transform="translate(-361.467 -480.814)" fill="#fff"/>
      <g id="Group_1" data-name="Group 1" transform="translate(21.976 9.682)">
        <path id="Path_7" data-name="Path 7" d="M527.306,438.206l-.333,1.085a18.977,18.977,0,0,1-6.7,9.527,18.78,18.78,0,0,1-22.072.338c-.048-.034-.1-.069-.144-.105l-.144-.105c-.129-.1-.259-.189-.388-.287l0,0c-.036-.026-.069-.055-.1-.081,0,0-.007-.007-.012-.01-.1-.079-.2-.161-.3-.242l-.041-.033c-.086-.072-.17-.144-.254-.215a20.137,20.137,0,0,1-2.4-2.49,19.026,19.026,0,0,1-2.03-3.007c-.16-.3-.311-.6-.455-.905a18.617,18.617,0,0,1-1.7-6.575c-.031-.44-.046-.881-.046-1.324a18.687,18.687,0,0,1,2.368-9.122,10.1,10.1,0,0,1,1.379.965,17.083,17.083,0,0,0,.242,16.736q.424.729.917,1.413a17.238,17.238,0,0,0,3.105,3.295c.445.361.91.7,1.389,1.02a17.122,17.122,0,0,0,25.41-8.2h-4.97a12.607,12.607,0,0,1-18.723,3.881,12.682,12.682,0,0,1-3.105-3.469,12.6,12.6,0,0,1-1.822-6.522,12.584,12.584,0,0,1,.68-4.08,7.825,7.825,0,0,1,.311.852,9.12,9.12,0,0,1,.251,2.732,14,14,0,0,0,.079,1.968,11.591,11.591,0,0,0,1.178,3.761,11.033,11.033,0,0,0,2.983,3.6c.048.036.1.069.146.105a12.964,12.964,0,0,0,1.4.922q.51.291,1.056.551v0l.038.017.089.043,0-.007a13.313,13.313,0,0,0,4.377.74q.5,0,1.034-.043c2.8-.237,6.694-1.592,9.409-6.7l.017-.031Z" transform="translate(-490.188 -424.65)" fill="#fff"/>
      </g>
      <path id="Path_8" data-name="Path 8" d="M517.685,549.654h0Z" transform="translate(-491.014 -518.63)" fill="#fff"/>
    </g>
    <g id="Group_5" data-name="Group 5" transform="translate(361.467 411.987)">
      <path id="Path_10" data-name="Path 10" d="M433.057,627.67c0-.224-.2-.291-.3-.448s-.085-.059-.245-.152-.069-.057-.27-.1a1.173,1.173,0,0,0-.4-.034c-.209,0-.17.107-.371.152s-.2.118-.355.211-.025.071-.118.228-.169.1-.169.321l.051,2.339c0,.224.017.5,0,0-.006-.182,0-.11.153-.017s-.2.538,0,.583a2.853,2.853,0,0,0,1.23,0,1.764,1.764,0,0,0,.532-.135c.16-.093,0-.054.1-.211s.1.013.1-.211l.144-.507h.671a.229.229,0,0,1,.224.224v.347a1.528,1.528,0,0,1-.185.777,1.5,1.5,0,0,1-.487.514,2.145,2.145,0,0,1-.682.285,3.47,3.47,0,0,1-1.566,0,2.081,2.081,0,0,1-.677-.285,1.468,1.468,0,0,1-.475-.514,1.568,1.568,0,0,1-.179-.777v-2.583a1.568,1.568,0,0,1,.179-.777,1.466,1.466,0,0,1,.475-.514,2.077,2.077,0,0,1,.677-.285,3.472,3.472,0,0,1,1.566,0,2.145,2.145,0,0,1,.682.285,1.493,1.493,0,0,1,.487.514,1.527,1.527,0,0,1,.185.777v.336a.229.229,0,0,1-.224.224h-.671Zm-.287,2.085a.214.214,0,0,1,.157-.067h.224v.391a.84.84,0,0,1-.106.436.871.871,0,0,1-.279.291,1.323,1.323,0,0,1-.391.168,1.865,1.865,0,0,1-.906,0,1.321,1.321,0,0,1-.391-.168.866.866,0,0,1-.28-.291.839.839,0,0,1-.106-.436v-2.237a.815.815,0,0,1,.106-.425.918.918,0,0,1,.28-.3,1.237,1.237,0,0,1,.391-.173,1.861,1.861,0,0,1,.906,0,1.24,1.24,0,0,1,.391.173.923.923,0,0,1,.279.3.817.817,0,0,1,.106.425v.391h-.224a.229.229,0,0,1-.224-.224v-.168a.4.4,0,0,0-.246-.38,1.232,1.232,0,0,0-1.074,0,.4.4,0,0,0-.246.38v2.237a.4.4,0,0,0,.246.386,1.286,1.286,0,0,0,1.074,0,.4.4,0,0,0,.246-.386v-.168A.215.215,0,0,1,432.77,629.755Z" transform="translate(-429.795 -625.997)" fill="#fff"/>
      <path id="Path_11" data-name="Path 11" d="M483.3,631.87h-.224a.229.229,0,0,1-.224-.224v-5.48a.229.229,0,0,1,.224-.224h.224Zm0-5.927h.671a.229.229,0,0,1,.224.224v5.48a.229.229,0,0,1-.224.224H483.3Z" transform="translate(-473.792 -625.943)" fill="#fff"/>
      <path id="Path_12" data-name="Path 12" d="M518.942,626.01a.214.214,0,0,1,.156-.067h2.282a2.317,2.317,0,0,1,.895.162,1.939,1.939,0,0,1,.654.43,1.814,1.814,0,0,1,.4.609,1.891,1.891,0,0,1,.134.7,1.863,1.863,0,0,1-.089.57,1.7,1.7,0,0,1-.274.52,1.875,1.875,0,0,1-1.113.688q.436.57.861,1.129l.85,1.118h-.559q-.224-.28-.7-.9t-1.3-1.728h.246a1.936,1.936,0,0,0,.721-.123,1.537,1.537,0,0,0,.509-.319,1.281,1.281,0,0,0,.3-.447,1.359,1.359,0,0,0,.1-.509,1.425,1.425,0,0,0-.419-1,1.521,1.521,0,0,0-.509-.33,1.858,1.858,0,0,0-.7-.123h-2.058v5.48H519.1a.229.229,0,0,1-.224-.224v-5.48A.214.214,0,0,1,518.942,626.01Zm.262.213h2.415a1.865,1.865,0,0,1,.583.211,2.663,2.663,0,0,1,.574.371,2.6,2.6,0,0,1,.287.574,5.09,5.09,0,0,1,.135.887c0,.119-.264.293-.312.405a2.581,2.581,0,0,1-.447.456,3.266,3.266,0,0,1-.633.27,4.951,4.951,0,0,1-.945.084l-1.7-.084Zm2.981,5.648a.3.3,0,0,1-.207-.073.867.867,0,0,1-.14-.151l-1.476-1.957h-.145v1.957a.229.229,0,0,1-.224.224h-.671v-2.628h1.812l2,2.628Zm-.252-3.679a.451.451,0,0,0,.185-.347.515.515,0,0,0-.19-.386.786.786,0,0,0-.548-.173h-1.163v1.063h1.163A.838.838,0,0,0,521.934,628.191Z" transform="translate(-503.667 -625.943)" fill="#fff"/>
      <path id="Path_13" data-name="Path 13" d="M572.258,626.39v-.224a.229.229,0,0,1,.224-.224h4.026a.229.229,0,0,1,.224.224v.224Zm.067.749a.215.215,0,0,1-.067-.157v-.593h2.013v5.48h-.224a.229.229,0,0,1-.224-.224v-4.44h-1.342A.215.215,0,0,1,572.325,627.14Zm4.406-.157a.229.229,0,0,1-.224.224h-1.342v4.44a.229.229,0,0,1-.224.224h-.671v-5.48h2.46Z" transform="translate(-547.936 -625.943)" fill="#fff"/>
      <g id="Group_3" data-name="Group 3" transform="translate(43.666 0.011)">
        <path id="Path_14" data-name="Path 14" d="M493.142,690.624a1.06,1.06,0,0,0-.145-.57,1.09,1.09,0,0,0-.385-.374,1.882,1.882,0,0,0-.542-.207,2.855,2.855,0,0,0-1.228,0,1.806,1.806,0,0,0-.536.207,1.057,1.057,0,0,0-.374.374,1.094,1.094,0,0,0-.14.57V693.2a1.1,1.1,0,0,0,.14.57,1.057,1.057,0,0,0,.374.374,1.808,1.808,0,0,0,.536.206,2.848,2.848,0,0,0,1.228,0,1.883,1.883,0,0,0,.542-.206,1.09,1.09,0,0,0,.385-.374,1.061,1.061,0,0,0,.145-.57v-.569h.223a.229.229,0,0,1,.223.223v.346a1.524,1.524,0,0,1-.184.776,1.491,1.491,0,0,1-.486.513,2.138,2.138,0,0,1-.681.285,3.469,3.469,0,0,1-1.563,0,2.073,2.073,0,0,1-.675-.285,1.46,1.46,0,0,1-.474-.513,1.564,1.564,0,0,1-.179-.776v-2.578a1.564,1.564,0,0,1,.179-.776,1.461,1.461,0,0,1,.474-.513,2.072,2.072,0,0,1,.675-.285,3.466,3.466,0,0,1,1.563,0,2.138,2.138,0,0,1,.681.285,1.492,1.492,0,0,1,.486.513,1.524,1.524,0,0,1,.184.776v.335a.229.229,0,0,1-.223.223h-.223Zm-.826,2.076a.215.215,0,0,1,.156-.067h.67l.116.411c0,.171.155.37.084.489a3.5,3.5,0,0,1-.455.666,2.378,2.378,0,0,1-.48.329,5.059,5.059,0,0,1-.75-.015,3.231,3.231,0,0,1-.6,0,3.122,3.122,0,0,1-.615-.127,3.385,3.385,0,0,1-.581-.548,1.614,1.614,0,0,1-.143-.607V690.8a4.036,4.036,0,0,1,.16-.952.919.919,0,0,1,.279-.3,1.238,1.238,0,0,1,.391-.173,1.862,1.862,0,0,1,.9,0c.145.037.451-.048.566.03a8.969,8.969,0,0,1,1.11.522.816.816,0,0,1,.106.424l-.053.831h-.71a.229.229,0,0,1-.223-.223v-.167a.4.4,0,0,0-.245-.38,1.232,1.232,0,0,0-1.072,0,.4.4,0,0,0-.246.38v2.232a.4.4,0,0,0,.246.385,1.283,1.283,0,0,0,1.072,0,.4.4,0,0,0,.245-.385v-.167A.214.214,0,0,1,492.315,692.7Z" transform="translate(-489.346 -688.95)" fill="#fff"/>
        <path id="Path_15" data-name="Path 15" d="M519.721,694.767a.215.215,0,0,1-.156.067h-.223l-.691-2.891a8.1,8.1,0,0,0,.051-1.517c-.1-.175-.324-.184-.48-.3s.112-.037-.093-.093.158-.067-.05-.067-.2-.1-.4-.042-.391-.067-.548.049a1.274,1.274,0,0,0-.374.435,1.3,1.3,0,0,0-.14.619l-.62,3.81h-.223a.228.228,0,0,1-.223-.223v-3.851a1.755,1.755,0,0,1,.179-.815,1.708,1.708,0,0,1,.474-.575,2.029,2.029,0,0,1,.675-.34,2.758,2.758,0,0,1,.781-.111,2.817,2.817,0,0,1,.787.111,2.02,2.02,0,0,1,.681.34,1.762,1.762,0,0,1,.48.575,1.708,1.708,0,0,1,.184.815v3.851A.214.214,0,0,1,519.721,694.767Zm-3.176-4.4a.934.934,0,0,1,.284-.307,1.335,1.335,0,0,1,.391-.184,1.559,1.559,0,0,1,.435-.061,1.68,1.68,0,0,1,.447.061,1.182,1.182,0,0,1,.4.19,1.09,1.09,0,0,1,.284.313.789.789,0,0,1,.112.419v1.362h-2.456v-1.362A.845.845,0,0,1,516.545,690.363Zm2.126,4.471a.229.229,0,0,1-.223-.223v-1.563h-1.563v1.563a.229.229,0,0,1-.223.223h-.725V692.6h3.472l-.068,2.233Zm-.223-3.125v-.915a.434.434,0,0,0-.251-.4,1.1,1.1,0,0,0-.541-.14,1.079,1.079,0,0,0-.525.134.432.432,0,0,0-.246.4v.915Z" transform="translate(-508.849 -688.917)" fill="#fff"/>
        <path id="Path_16" data-name="Path 16" d="M541.813,688.984a.215.215,0,0,1,.156-.067h2.277a2.315,2.315,0,0,1,.893.162,1.935,1.935,0,0,1,.653.43,1.809,1.809,0,0,1,.4.609,1.887,1.887,0,0,1,.134.7,1.862,1.862,0,0,1-.089.569,1.7,1.7,0,0,1-.274.519,1.887,1.887,0,0,1-.463.425,1.868,1.868,0,0,1-.647.262q.435.569.859,1.127l.848,1.116H546q-.224-.279-.7-.9T544,692.21h.246a1.935,1.935,0,0,0,.72-.123,1.538,1.538,0,0,0,.508-.318,1.287,1.287,0,0,0,.3-.447,1.358,1.358,0,0,0,.1-.508,1.424,1.424,0,0,0-.418-1,1.524,1.524,0,0,0-.508-.329,1.856,1.856,0,0,0-.7-.123h-2.054v5.47h-.223a.228.228,0,0,1-.223-.223v-5.47A.214.214,0,0,1,541.813,688.984Zm.183.3,1.938-.194a2.877,2.877,0,0,1,.725.1,3.208,3.208,0,0,1,.674.27,4.254,4.254,0,0,1,.43.7c.052.119.244.371.244.5a1.03,1.03,0,0,1-.076.379c-.048.111.067.3-.034.388s-.293.4-.438.456a3.943,3.943,0,0,1-.851.379l-2.417-.044Zm3.054,5.554a.3.3,0,0,1-.206-.073.875.875,0,0,1-.14-.151l-1.473-1.953h-.145v1.953a.228.228,0,0,1-.223.223h-.67V692.21H544l2.049,2.623Zm-.251-3.672a.451.451,0,0,0,.184-.346.514.514,0,0,0-.19-.385.785.785,0,0,0-.547-.173h-1.161v1.061h1.161A.837.837,0,0,0,544.8,691.161Z" transform="translate(-528.351 -688.917)" fill="#fff"/>
        <path id="Path_17" data-name="Path 17" d="M569.485,689.364v5.023H573v.447h-3.74a.228.228,0,0,1-.223-.223v-5.47a.228.228,0,0,1,.223-.223H573v.447Zm-.092,2.772.013-2.831,3.6.059v.893h-2.624v.949H573v.837Zm-.088,2.484.18-2.654,3.516.077v.447h-2.624v1H573v.893Z" transform="translate(-548.667 -688.917)" fill="#fff"/>
      </g>
      <g id="Group_4" data-name="Group 4" transform="translate(33.38 0)">
        <path id="Path_18" data-name="Path 18" d="M629.375,626.972a1.778,1.778,0,0,0-.48-.577,2.019,2.019,0,0,0-.683-.34,2.8,2.8,0,0,0-.789-.113,2.733,2.733,0,0,0-.782.113,2.027,2.027,0,0,0-.678.34,1.724,1.724,0,0,0-.475.577,1.754,1.754,0,0,0-.179.816v3.859a.231.231,0,0,0,.224.224h.895a.216.216,0,0,0,.157-.067.218.218,0,0,0,.067-.157v-1.566h1.566v1.566a.22.22,0,0,0,.068.157.215.215,0,0,0,.155.067h.9a.215.215,0,0,0,.155-.067.22.22,0,0,0,.068-.157v-3.859A1.714,1.714,0,0,0,629.375,626.972Zm-1.157,1.767h-1.566v-.917a.432.432,0,0,1,.246-.4,1.077,1.077,0,0,1,.526-.135,1.091,1.091,0,0,1,.543.14.436.436,0,0,1,.251.4Z" transform="translate(-625.31 -625.942)" fill="#fff"/>
      </g>
      <rect id="Rectangle_2" data-name="Rectangle 2" width="0.552" height="1.717" transform="translate(51.151 2.802)" fill="#fff"/>
      <rect id="Rectangle_3" data-name="Rectangle 3" width="0.552" height="1.717" transform="translate(53.265 2.726)" fill="#fff"/>
      <rect id="Rectangle_4" data-name="Rectangle 4" width="2.189" height="0.784" transform="translate(51.353 3.091)" fill="#fff"/>
    </g>
  </g>
</svg>
