<svg xmlns="http://www.w3.org/2000/svg" width="397.695" height="301.132" viewBox="0 0 397.695 301.132">
  <g id="OUR_SERVICES-bg" data-name="OUR SERVICES-bg" transform="translate(-33.11 160.677) rotate(-42)">
    <ellipse id="Ellipse_2808" data-name="Ellipse 2808" cx="91.896" cy="91.896" rx="91.896" ry="91.896" transform="translate(150.622 88.633)" fill="#f5f7ff"/>
    <ellipse id="Ellipse_2809" data-name="Ellipse 2809" cx="51.657" cy="51.657" rx="51.657" ry="51.657" transform="translate(0 49.482)" fill="#f5f7ff"/>
    <ellipse id="Ellipse_2810" data-name="Ellipse 2810" cx="47.851" cy="47.851" rx="47.851" ry="47.851" transform="translate(123.434 0)" fill="#f5f7ff"/>
    <path id="MetaballShape1" d="M116.637,79.551c-42.22-.359-50.386,2.66-79.139,38.026L0,33.4C45.522,35.678,53.229,31.626,81.2,0Z" transform="translate(54.241 16.149)" fill="#f5f7ff"/>
    <path id="MetaballShape1-2" data-name="MetaballShape1" d="M81.976,0C89.534,28.818,91.9,37.613,144.2,60.82L16.317,129.476C25.868,73.064,19.844,66.233,0,44.012Z" transform="translate(135.594 35.712)" fill="#f5f7ff"/>
    <path id="MetaballShape1-3" data-name="MetaballShape1" d="M37.807,0C76.987,33.17,87.953,46.264,177.56,28.645L118.841,169.811C68.163,93.84,51.146,95.294,0,90.893Z" transform="translate(47.229 61.714)" fill="#f5f7ff"/>
  </g>
</svg>
