<svg xmlns="http://www.w3.org/2000/svg" width="780.346" height="636.763" viewBox="0 0 780.346 636.763">
  <g id="Group_38297" data-name="Group 38297" transform="translate(-78.205 415.092) rotate(-51)">
    <circle id="Ellipse_2808" data-name="Ellipse 2808" cx="186.886" cy="186.886" r="186.886" transform="translate(306.316 180.251)" fill="#f5f7ff"/>
    <circle id="Ellipse_2809" data-name="Ellipse 2809" cx="105.054" cy="105.054" r="105.054" transform="translate(0 100.631)" fill="#f5f7ff"/>
    <circle id="Ellipse_2810" data-name="Ellipse 2810" cx="97.313" cy="97.313" r="97.313" transform="translate(251.025)" fill="#f5f7ff"/>
    <path id="MetaballShape1" d="M1087.954,1742.852c-85.861-.73-102.469,5.41-160.943,77.333l-76.259-171.194c92.578,4.637,108.25-3.6,165.136-67.92Z" transform="translate(-740.443 -1548.229)" fill="#f5f7ff"/>
    <path id="MetaballShape1-2" data-name="MetaballShape1" d="M1167.077,1523.212c15.37,58.607,20.18,76.492,126.536,123.687l-260.066,139.625c19.424-114.725,7.173-128.615-33.184-173.807Z" transform="translate(-724.609 -1450.585)" fill="#f5f7ff"/>
    <path id="MetaballShape1-3" data-name="MetaballShape1" d="M914.743,1401.216c79.679,67.458,101.98,94.086,284.212,58.255l-119.414,287.084c-103.063-154.5-137.67-151.543-241.685-160.494Z" transform="translate(-741.808 -1275.709)" fill="#f5f7ff"/>
  </g>
</svg>
