<svg xmlns="http://www.w3.org/2000/svg" width="101.576" height="87.589" viewBox="0 0 101.576 87.589">
  <g id="Success_Numbers" data-name="Success Numbers" transform="translate(0 0)">
    <g id="Color_copy" transform="translate(0 0)">
      <g id="Group_101" data-name="Group 101">
        <g id="Group_94" data-name="Group 94" transform="translate(22.639)">
          <g id="Group_93" data-name="Group 93">
            <path id="Path_2849" data-name="Path 2849" d="M44.074,18.511l-3.152-3.152A14.611,14.611,0,1,0,20.259,36.022L38.82,54.583a7.4,7.4,0,0,0,10.331,0L67.713,36.022A14.611,14.611,0,0,0,47.05,15.359Z" transform="translate(-15.925 -10.946)" fill="#ade8f4"/>
            <path id="Path_2850" data-name="Path 2850" d="M55.925,47.1,49.1,53.926a7.4,7.4,0,0,1-10.331,0L20.2,35.364a14.8,14.8,0,0,1,0-20.663,18.588,18.588,0,0,1,3.677-2.8C24.93,30.111,38.414,44.82,55.925,47.1Z" transform="translate(-15.869 -10.289)" fill="#48cae4"/>
            <g id="Group_92" data-name="Group 92" transform="translate(0.131)">
              <path id="Path_2851" data-name="Path 2851" d="M39.64,38.157l-5.779-4.378,2.8-7.179-7.179-5.779,5.779-4.378-.7-4.9a15.1,15.1,0,0,0-14.534,3.677A14.635,14.635,0,0,0,16,22.572l6.3,1.051V28l2.8,4.378-3.327,5.428L35.087,51.115l2.8-4.378-4.378-5.779Z" transform="translate(-16 -10.98)" fill="#95d5b2"/>
              <path id="Path_2852" data-name="Path 2852" d="M43.433,37.531l-4.9,4.9a6.994,6.994,0,0,1-8.23,1.4l4.553-6.479-2.8-5.779L37.83,27.2l1.4,5.779Z" transform="translate(-5.26 1.202)" fill="#95d5b2"/>
              <path id="Path_2853" data-name="Path 2853" d="M54.012,35.965l-6.829,6.829-5.6-.35-1.4-7.179-4.378-1.4,1.4-4.378-2.8-5.779,2.8-2.8V12.5a15.739,15.739,0,0,1,6.3-1.4,14.2,14.2,0,0,1,9.806,3.852L50.16,18.1l2.8,7.179,5.078-.525a14.212,14.212,0,0,1-4.027,11.207Z" transform="translate(-2.18 -10.89)" fill="#95d5b2"/>
            </g>
            <path id="Path_2854" data-name="Path 2854" d="M38.088,46.046l-2.8,4.553L21.979,37.291l3.327-5.428-2.8-4.378V23.107l-6.3-1.051A14.635,14.635,0,0,1,20.227,14.7,18.588,18.588,0,0,1,23.9,11.9,37.317,37.317,0,0,0,37.038,38.691l-3.152,1.576Z" transform="translate(-15.718 -10.289)" fill="#52b788"/>
            <path id="Path_2855" data-name="Path 2855" d="M43.433,35.8l-4.9,4.9a6.994,6.994,0,0,1-8.23,1.4l4.553-6.479-2.8-5.779.525-.35a32.559,32.559,0,0,0,8.055,3.327Z" transform="translate(-5.128 2.93)" fill="#52b788"/>
          </g>
        </g>
        <g id="Group_97" data-name="Group 97" transform="translate(0 4.676)">
          <g id="Group_95" data-name="Group 95">
            <path id="Path_2856" data-name="Path 2856" d="M3.353,38.252,8.431,17.94a5.418,5.418,0,0,1,6.129-4.2,5.1,5.1,0,0,1,4.027,6.479l-3.5,13.658a4.059,4.059,0,0,0,.525,2.8l2.977,4.553.175-.175a5.151,5.151,0,0,1,7.53.7L35.4,53.136a48.16,48.16,0,0,1,3.327,4.9A34.2,34.2,0,0,1,42.4,79.577L39.6,96.563H17.712l1.4-13.133a29.309,29.309,0,0,0-3.152-16.285L4.229,45.782a10.169,10.169,0,0,1-.876-7.53Z" transform="translate(-2.996 -13.651)" fill="#f9dbaf"/>
          </g>
          <g id="Group_96" data-name="Group 96" transform="translate(0 16.722)">
            <path id="Path_2857" data-name="Path 2857" d="M15.524,43.759,10.446,37.28a5.4,5.4,0,0,1,.35-7.355A4.6,4.6,0,0,1,13.423,28.7l.876,1.4a5.569,5.569,0,0,0-.35,7.179L21.3,46.561a7.391,7.391,0,0,1-5.779-2.8Z" transform="translate(1.643 -19.069)" fill="#edb88e"/>
            <path id="Path_2858" data-name="Path 2858" d="M40.3,84.313A11.918,11.918,0,0,1,26.642,73.106a26.877,26.877,0,0,0-5.6-15.585L11.233,44.388A32.62,32.62,0,0,1,5.279,23.2L3.353,31.08a10.169,10.169,0,0,0,.876,7.53L15.786,59.973a27.615,27.615,0,0,1,3.152,16.285L17.712,89.391H39.6Z" transform="translate(-2.996 -23.2)" fill="#edb88e"/>
          </g>
        </g>
        <g id="Group_100" data-name="Group 100" transform="translate(61.559 4.676)">
          <g id="Group_98" data-name="Group 98">
            <path id="Path_2859" data-name="Path 2859" d="M77.811,38.252,72.733,17.94a5.418,5.418,0,0,0-6.129-4.2,5.1,5.1,0,0,0-4.027,6.479l3.5,13.658a4.059,4.059,0,0,1-.525,2.8L62.4,41.229l-.175-.175a5.151,5.151,0,0,0-7.53.7L45.591,53.136a48.159,48.159,0,0,0-3.327,4.9,34.2,34.2,0,0,0-3.677,21.538l2.8,16.985H63.277l-1.4-13.133a29.309,29.309,0,0,1,3.152-16.285L76.936,45.782A10.169,10.169,0,0,0,77.811,38.252Z" transform="translate(-38.151 -13.651)" fill="#f9dbaf"/>
          </g>
          <path id="Path_2860" data-name="Path 2860" d="M53.6,43.759l5.078-6.479a5.4,5.4,0,0,0-.35-7.355A4.6,4.6,0,0,0,55.7,28.7L55,29.926a5.569,5.569,0,0,1,.35,7.179L48,46.386A6.661,6.661,0,0,0,53.6,43.759Z" transform="translate(-30.754 -2.347)" fill="#edb88e"/>
          <g id="Group_99" data-name="Group 99" transform="translate(0.261 26.151)">
            <path id="Path_2861" data-name="Path 2861" d="M63.34,85.346H41.452l-2.8-16.985a28.287,28.287,0,0,1-.35-5.428,34.326,34.326,0,0,1,4.027-16.11,30.224,30.224,0,0,1,3.327-4.9L54.76,30.538a5.551,5.551,0,0,1,4.728-1.926l-5.078,6.3a48.166,48.166,0,0,0-3.327,4.9,34.326,34.326,0,0,0-4.027,16.11c0,1.751.175,3.677.35,5.428a20.45,20.45,0,0,0,6.829,12.082,21.642,21.642,0,0,0,8.23,4.2Z" transform="translate(-38.3 -28.585)" fill="#edb88e"/>
          </g>
        </g>
      </g>
    </g>
  </g>
</svg>
