<svg xmlns="http://www.w3.org/2000/svg" width="86.21" height="86.173" viewBox="0 0 86.21 86.173">
  <g id="Surgery_Operations" data-name="Surgery Operations" transform="translate(0 0)">
    <path id="Path_2884" data-name="Path 2884" d="M406.142.1a5.943,5.943,0,0,1,5.943,5.943V50.613H400.2V6.041A5.943,5.943,0,0,1,406.142.1Zm0,0" transform="translate(-325.875 -0.098)" fill="#ee1442"/>
    <path id="Path_2885" data-name="Path 2885" d="M408.371.564a5.926,5.926,0,0,0-8.172,5.5V50.633h4.457V6.061a5.942,5.942,0,0,1,3.714-5.5Zm0,0" transform="translate(-325.875 -0.118)" fill="#ce1743"/>
    <path id="Path_2886" data-name="Path 2886" d="M409.113,278.041V272.1H400.2v35.658a11.886,11.886,0,0,0,11.886-11.886V281.012A2.972,2.972,0,0,0,409.113,278.041Zm0,0" transform="translate(-325.875 -221.583)" fill="#88d3d1"/>
    <path id="Path_2887" data-name="Path 2887" d="M403.171,297.178V278.04a2.972,2.972,0,0,1,2.971-2.971h2.971V272.1H400.2v35.658h.149a2.936,2.936,0,0,0,2.823-2.971Zm0,0" transform="translate(-325.875 -221.582)" fill="#33b1a2"/>
    <path id="Path_2888" data-name="Path 2888" d="M425.685,355.984A1.485,1.485,0,0,1,424.2,354.5v-8.914a1.486,1.486,0,0,1,2.971,0V354.5A1.485,1.485,0,0,1,425.685,355.984Zm0,0" transform="translate(-345.418 -280.211)" fill="#c5dddc"/>
    <path id="Path_2889" data-name="Path 2889" d="M400.2,208.1h11.886v5.943H400.2Zm0,0" transform="translate(-325.875 -169.469)" fill="#88d3d1"/>
    <path id="Path_2890" data-name="Path 2890" d="M400.2,176.1h11.886v5.943H400.2Zm0,0" transform="translate(-325.875 -143.412)" fill="#c5dddc"/>
    <path id="Path_2891" data-name="Path 2891" d="M400.2,176.1h4.457v5.943H400.2Zm0,0" transform="translate(-325.875 -143.412)" fill="#88d3d1"/>
    <path id="Path_2892" data-name="Path 2892" d="M400.2,208.1h4.457v5.943H400.2Zm0,0" transform="translate(-325.875 -169.469)" fill="#33b1a2"/>
    <path id="Path_2893" data-name="Path 2893" d="M190.4,369.383a1.486,1.486,0,0,1-.506-2.881l5.577-2.04a1.486,1.486,0,1,1,1.016,2.792l-5.585,2.034A1.462,1.462,0,0,1,190.4,369.383Zm0,0" transform="translate(-153.832 -296.712)" fill="#c5dddc"/>
    <path id="Path_2894" data-name="Path 2894" d="M114.394,369.493a1.48,1.48,0,0,1-.508-.089L108.3,367.37a1.486,1.486,0,0,1,1.016-2.792l5.585,2.034a1.486,1.486,0,0,1-.509,2.881Zm0,0" transform="translate(-87.413 -296.822)" fill="#88d3d1"/>
    <path id="Path_2895" data-name="Path 2895" d="M153.66,75.481a9,9,0,0,0-9.3-4.823,8.771,8.771,0,0,0-4.336,1.932L125.61,33.012a1.486,1.486,0,0,1,.892-1.905,1.484,1.484,0,0,0,.891-1.9L117.735,2.676A8.915,8.915,0,0,0,112.407,14.1l5.943,16.343,18.837,51.747A9.147,9.147,0,0,0,148.3,87.985a8.915,8.915,0,0,0,5.36-12.5ZM146.7,82.262a2.972,2.972,0,1,1,1.682-1.535,2.971,2.971,0,0,1-1.682,1.535Zm0,0" transform="translate(-91.091 -2.197)" fill="#c5dddc"/>
    <path id="Path_2896" data-name="Path 2896" d="M36.714,30.469l5.943-16.336A8.914,8.914,0,0,0,37.33,2.708L32.2,16.8l4.527,12.436M32.2,42.862l-3.162-8.688L15.044,72.622a8.775,8.775,0,0,0-4.335-1.932A8.915,8.915,0,0,0,6.762,88.017a9.147,9.147,0,0,0,11.113-5.794ZM12.171,80.512a2.972,2.972,0,1,1-.1-2.274A2.972,2.972,0,0,1,12.171,80.512Zm0,0" transform="translate(-0.425 -2.223)" fill="#88d3d1"/>
    <path id="Path_2897" data-name="Path 2897" d="M147.132,172.141l-1.581,4.344,3.162,8.687,1.581-4.343Zm0,0" transform="translate(-118.52 -140.19)" fill="#33b1a2"/>
    <path id="Path_2898" data-name="Path 2898" d="M175.613,71.967,175.6,73.2l1.814-4.982-4.745-13.033-1.581,4.344Zm0,0" transform="translate(-139.312 -44.956)" fill="#33b1a2"/>
    <path id="Path_2899" data-name="Path 2899" d="M151.7,86.83a9.147,9.147,0,0,1-11.113-5.794L121.752,29.281l-5.943-16.336A8.891,8.891,0,0,1,116.816,4.9a8.915,8.915,0,0,0-4.39,11.017l5.943,16.343L137.2,84A9.147,9.147,0,0,0,148.317,89.8a8.868,8.868,0,0,0,4.765-3.54,9.009,9.009,0,0,1-1.378.575Zm0,0" transform="translate(-91.108 -4.007)" fill="#88d3d1"/>
    <path id="Path_2900" data-name="Path 2900" d="M10.792,384.377a8.915,8.915,0,0,1-5.358-12.51,8.526,8.526,0,0,1,1.027-1.558,8.873,8.873,0,1,0,9.348,14.069,8.542,8.542,0,0,1-5.018,0Zm0,0" transform="translate(0.001 -301.554)" fill="#33b1a2"/>
  </g>
</svg>
