<svg id="teeth-implant" xmlns="http://www.w3.org/2000/svg" width="80.102" height="101.607" viewBox="0 0 80.102 101.607">
  <path id="Path_2811" data-name="Path 2811" d="M82.817,27.168,73.8,49.528H13.869L4.853,27.168A20.18,20.18,0,0,1,29.671,1.333l10.36,3.049a13.965,13.965,0,0,0,3.279.525,3.963,3.963,0,0,0,.623.033,13.011,13.011,0,0,0,3.7-.557l.492-.131.623-.2.918-.262L58,1.333A20.18,20.18,0,0,1,82.817,27.168Z" transform="translate(-3.784 -0.509)" fill="#f6f6f6"/>
  <path id="Path_2812" data-name="Path 2812" d="M23.27,1.59a13.089,13.089,0,0,0-5.049,7.737,1.675,1.675,0,0,1-1.607,1.279,1.344,1.344,0,0,1-.361-.033,1.65,1.65,0,0,1-1.246-1.967,16.487,16.487,0,0,1,2.82-6.164,3.963,3.963,0,0,0,.623.033,13.011,13.011,0,0,0,3.7-.557l.492-.131Z" transform="translate(21.699 1.956)" fill="#e3e3e3"/>
  <path id="Path_2813" data-name="Path 2813" d="M46.564,19.382,46.4,20.556l-.721,3.672L44.236,31.44l-.754,3.672-1.508,7.573-.721,3.672-1.246,6.2L28.532,59.111l-9.7-5.541-1.77-1.016-.361-1.77-1.311-6.59-.656-3.246-1.246-6.328-.656-3.246L10.5,19.382Z" transform="translate(11.519 42.496)" fill="#8b8891"/>
  <path id="Path_2814" data-name="Path 2814" d="M44.782,19.74l-.721,3.672L12.03,33.772c-.066,0-.1.033-.164.033l-.656-3.246ZM42.618,30.625,41.864,34.3,13.931,43.345c-.066,0-.1.033-.164.033l-.656-3.246Z" transform="translate(13.137 43.312)" fill="#afaeb3"/>
  <path id="Path_2815" data-name="Path 2815" d="M37.668,26.49l-.721,3.672L14.521,37.375l-1.77-1.016-.361-1.77Z" transform="translate(15.825 58.691)" fill="#afaeb3"/>
  <path id="Path_2816" data-name="Path 2816" d="M8.5,15.46H57.678V25.3A3.279,3.279,0,0,1,54.4,28.574H11.779A3.279,3.279,0,0,1,8.5,25.3Z" transform="translate(6.962 33.559)" fill="#dad9db"/>
</svg>
