<svg xmlns="http://www.w3.org/2000/svg" width="101.85" height="101.85" viewBox="0 0 101.85 101.85">
  <g id="tooth-implant" transform="translate(-0.5 -0.5)">
    <path id="Path_2820" data-name="Path 2820" d="M92.493,65.461H10.356A9.856,9.856,0,0,1,.5,55.605V29.778A13.113,13.113,0,0,1,16.2,16.9a174.569,174.569,0,0,0,35.228,3.594A174.535,174.535,0,0,0,86.64,16.9,13.113,13.113,0,0,1,102.35,29.778V55.605A9.856,9.856,0,0,1,92.493,65.461Z" transform="translate(0 36.888)" fill="#f1748e"/>
    <circle id="Ellipse_2789" data-name="Ellipse 2789" cx="1.643" cy="1.643" r="1.643" transform="translate(5.428 90.85)" fill="#8b8891"/>
    <circle id="Ellipse_2790" data-name="Ellipse 2790" cx="1.643" cy="1.643" r="1.643" transform="translate(87.565 90.85)" fill="#8b8891"/>
    <circle id="Ellipse_2791" data-name="Ellipse 2791" cx="1.643" cy="1.643" r="1.643" transform="translate(77.709 94.136)" fill="#8b8891"/>
    <circle id="Ellipse_2792" data-name="Ellipse 2792" cx="1.643" cy="1.643" r="1.643" transform="translate(84.28 77.709)" fill="#8b8891"/>
    <circle id="Ellipse_2793" data-name="Ellipse 2793" cx="1.643" cy="1.643" r="1.643" transform="translate(94.136 80.994)" fill="#8b8891"/>
    <circle id="Ellipse_2794" data-name="Ellipse 2794" cx="1.643" cy="1.643" r="1.643" transform="translate(80.994 64.567)" fill="#8b8891"/>
    <circle id="Ellipse_2795" data-name="Ellipse 2795" cx="1.643" cy="1.643" r="1.643" transform="translate(90.85 64.567)" fill="#8b8891"/>
    <circle id="Ellipse_2796" data-name="Ellipse 2796" cx="1.643" cy="1.643" r="1.643" transform="translate(48.139 84.28)" fill="#8b8891"/>
    <circle id="Ellipse_2797" data-name="Ellipse 2797" cx="1.643" cy="1.643" r="1.643" transform="translate(62.924 94.136)" fill="#8b8891"/>
    <circle id="Ellipse_2798" data-name="Ellipse 2798" cx="1.643" cy="1.643" r="1.643" transform="translate(43.211 94.136)" fill="#8b8891"/>
    <circle id="Ellipse_2799" data-name="Ellipse 2799" cx="1.643" cy="1.643" r="1.643" transform="translate(28.427 94.136)" fill="#8b8891"/>
    <circle id="Ellipse_2800" data-name="Ellipse 2800" cx="1.643" cy="1.643" r="1.643" transform="translate(15.285 90.85)" fill="#8b8891"/>
    <circle id="Ellipse_2801" data-name="Ellipse 2801" cx="1.643" cy="1.643" r="1.643" transform="translate(21.856 80.994)" fill="#8b8891"/>
    <circle id="Ellipse_2802" data-name="Ellipse 2802" cx="1.643" cy="1.643" r="1.643" transform="translate(8.714 74.423)" fill="#8b8891"/>
    <circle id="Ellipse_2803" data-name="Ellipse 2803" cx="1.643" cy="1.643" r="1.643" transform="translate(18.57 67.852)" fill="#8b8891"/>
    <circle id="Ellipse_2804" data-name="Ellipse 2804" cx="1.643" cy="1.643" r="1.643" transform="translate(8.714 61.281)" fill="#8b8891"/>
    <path id="Path_2821" data-name="Path 2821" d="M54.693,39.107a8.785,8.785,0,0,0-.131,5.585,32.111,32.111,0,0,1,1.446,9.626A32.768,32.768,0,0,1,51.9,70.22l-1.446,2.563a2.653,2.653,0,0,1-1.446,1.248,2.84,2.84,0,0,1-3.187-.69,2.935,2.935,0,0,1-.526-.821l-7-16.165a5.328,5.328,0,0,0-9.659-.2L20.984,71.994a2.868,2.868,0,0,1-1.61,1.446,2.8,2.8,0,0,1-3.253-.92,1.84,1.84,0,0,1-.329-.493l-1.413-2.793a32.192,32.192,0,0,1-1.544-25.265l.033-.131A8.889,8.889,0,0,0,13,38.22L8.631,24.388A13.2,13.2,0,0,1,25.223,7.862L31.958,10a9.207,9.207,0,0,0,4.994.1l6.8-1.84A13.181,13.181,0,0,1,59.622,25.472Z" transform="translate(17.2 15.406)" fill="#f6f6f6"/>
    <path id="Path_2822" data-name="Path 2822" d="M26.111,34.717l-5.963,3.975-5.963-3.975V2.92H26.111Z" transform="translate(31.277 5.531)" fill="#afaeb3"/>
    <rect id="Rectangle_46" data-name="Rectangle 46" width="23.849" height="7.951" transform="translate(39.502 0.5)" fill="#8b8891"/>
    <path id="Path_2823" data-name="Path 2823" d="M43.7,52.554a.468.468,0,0,1-.066.2,2.84,2.84,0,0,1-3.187-.69c1.511-10.842.559-19.121-2.924-25.4a13.942,13.942,0,0,0-5.388-5.552A11.366,11.366,0,0,0,21.2,21.44c-4.173,2.53-5.717,8.411-6.7,13.832A53.164,53.164,0,0,0,14.1,51.437a1.341,1.341,0,0,1-.1.723,2.8,2.8,0,0,1-3.253-.92,56.558,56.558,0,0,1,.526-16.526c1.084-6.144,2.924-12.879,8.214-16.1a14.536,14.536,0,0,1,14.226-.394,17.025,17.025,0,0,1,6.67,6.867C44.228,31.987,45.313,40.956,43.7,52.554Z" transform="translate(22.572 36.687)" fill="#f1748e"/>
  </g>
</svg>
