<svg xmlns="http://www.w3.org/2000/svg" width="105.702" height="101.878" viewBox="0 0 105.702 101.878">
  <g id="veneers" transform="translate(-0.5 -1.063)">
    <path id="Path_2824" data-name="Path 2824" d="M99.382,57.449H7.319A6.819,6.819,0,0,1,.5,50.629V36.99A17.049,17.049,0,0,1,17.549,19.942h71.6A17.049,17.049,0,0,1,106.2,36.99V50.629A6.819,6.819,0,0,1,99.382,57.449Z" transform="translate(0 45.493)" fill="#f1748e"/>
    <path id="Path_2825" data-name="Path 2825" d="M51.3,63.9a29.5,29.5,0,0,1-2.421,23.152l-1.3,2.353a2.642,2.642,0,0,1-4.705-.239L36.535,74.5a4.816,4.816,0,0,0-8.754-.188L20.816,88.689a2.6,2.6,0,0,1-4.671.034h0a41.808,41.808,0,0,1-2.809-24.975l.149-.6a4.516,4.516,0,0,0,.273-1.125,7.55,7.55,0,0,0-.17-3.989h0a4.792,4.792,0,0,1,4.568-6.24h29a4.792,4.792,0,0,1,4.505,6.424l-.23.634a7.245,7.245,0,0,0-.443,3.171A5.843,5.843,0,0,0,51.3,63.9Zm4.552-46.276-1.159,3.171A7.673,7.673,0,0,1,53.6,22.807a6.785,6.785,0,0,1-1.739,1.534,37.021,37.021,0,0,1-18.856,5.421,36.8,36.8,0,0,1-19.231-5.353,6.318,6.318,0,0,1-1.909-1.773,6.6,6.6,0,0,1-1.023-2.012L9.581,16.635a11.976,11.976,0,0,1,15.071-15l6.1,1.944a.631.631,0,0,0,.239.068,5.449,5.449,0,0,0,1.023.2,6.937,6.937,0,0,0,3.239-.17l.307-.068L36.995,3.2l.17-.034,4.3-1.159A11.962,11.962,0,0,1,55.851,17.624Z" transform="translate(20.55 0)" fill="#f6f6f6"/>
    <path id="Path_2826" data-name="Path 2826" d="M51.6,10.81v.1a6.79,6.79,0,0,1-1.739,1.534A37.021,37.021,0,0,1,31,17.868,36.8,36.8,0,0,1,11.77,12.515a6.317,6.317,0,0,1-1.91-1.773A38.921,38.921,0,0,1,30.8,6.071a40.636,40.636,0,0,1,20.8,4.74Z" transform="translate(22.555 11.9)" fill="#d9d8da"/>
    <path id="Path_2827" data-name="Path 2827" d="M24.723,1.69a1.425,1.425,0,0,1-.511.375A6.992,6.992,0,0,0,20.12,6.873a1.711,1.711,0,0,1-1.671,1.3,1.276,1.276,0,0,1-.375-.034,1.719,1.719,0,0,1-1.262-2.08,9.585,9.585,0,0,1,1.909-3.921,5.45,5.45,0,0,0,1.023.2,6.937,6.937,0,0,0,3.239-.17l.307-.068Zm.735,52.5-3.97,2.237a4.048,4.048,0,0,1-4.547-.39l-1.332-1.087a4.048,4.048,0,0,1-1.489-3.137V45.636a4.048,4.048,0,0,1,4.048-4.048h5.881a4.048,4.048,0,0,1,3.41,1.866l1.4,2.184a4.048,4.048,0,0,1-.087,4.494l-1.976,2.841A4.048,4.048,0,0,1,25.458,54.187Z" transform="translate(32.822 1.511)" fill="#e3e3e3"/>
  </g>
</svg>
